<?xml version="1.0" encoding="UTF-8" standalone="no"?>
<!-- Created with Inkscape (http://www.inkscape.org/) -->

<svg
   xmlns:dc="http://purl.org/dc/elements/1.1/"
   xmlns:cc="http://creativecommons.org/ns#"
   xmlns:rdf="http://www.w3.org/1999/02/22-rdf-syntax-ns#"
   xmlns:svg="http://www.w3.org/2000/svg"
   xmlns="http://www.w3.org/2000/svg"
   xmlns:sodipodi="http://sodipodi.sourceforge.net/DTD/sodipodi-0.dtd"
   xmlns:inkscape="http://www.inkscape.org/namespaces/inkscape"
   width="210mm"
   height="297mm"
   viewBox="0 0 210 297"
   version="1.1"
   id="svg8"
   inkscape:version="0.92.4 (5da689c313, 2019-01-14)"
   sodipodi:docname="lightning.svg">
  <defs
     id="defs2">
    <filter
       inkscape:label="Refractive Gel A"
       inkscape:menu="Ridges"
       inkscape:menu-tooltip="Gel effect with light refraction"
       height="1.4"
       width="1.4"
       y="-0.2"
       x="-0.2"
       style="color-interpolation-filters:sRGB;"
       id="filter1085">
      <feOffset
         dx="7"
         dy="7"
         in="SourceAlpha"
         result="result3"
         id="feOffset1063" />
      <feGaussianBlur
         stdDeviation="8"
         in="result3"
         result="result1"
         id="feGaussianBlur1065" />
      <feComposite
         operator="in"
         in2="result1"
         in="SourceGraphic"
         result="result2"
         id="feComposite1067" />
      <feComposite
         operator="out"
         result="fbSourceGraphic"
         in="result2"
         in2="result2"
         id="feComposite1069" />
      <feColorMatrix
         result="fbSourceGraphicAlpha"
         in="fbSourceGraphic"
         values="0 0 0 -1 0 0 0 0 -1 0 0 0 0 1 0 0 0 0 4 0 "
         id="feColorMatrix1071" />
      <feGaussianBlur
         result="result0"
         in="fbSourceGraphicAlpha"
         stdDeviation="2"
         id="feGaussianBlur1073" />
      <feSpecularLighting
         specularExponent="20"
         specularConstant="1.2"
         surfaceScale="3"
         lighting-color="rgb(255,255,255)"
         result="result1"
         in="result0"
         id="feSpecularLighting1077">
        <feDistantLight
           azimuth="235"
           elevation="45"
           id="feDistantLight1075" />
      </feSpecularLighting>
      <feComposite
         operator="in"
         result="result2"
         in="result1"
         in2="fbSourceGraphicAlpha"
         id="feComposite1079" />
      <feComposite
         in="fbSourceGraphic"
         operator="arithmetic"
         k2="2"
         k3="2"
         in2="result2"
         result="result91"
         id="feComposite1081" />
      <feBlend
         mode="multiply"
         in2="result91"
         id="feBlend1083" />
    </filter>
    <filter
       inkscape:label="Blur Double"
       inkscape:menu="Blurs"
       inkscape:menu-tooltip="Overlays two copies with different blur amounts and modifiable blend and composite"
       style="color-interpolation-filters:sRGB;"
       id="filter2002">
      <feGaussianBlur
         stdDeviation="5"
         result="fbSourceGraphic"
         id="feGaussianBlur1994" />
      <feGaussianBlur
         stdDeviation="0.01"
         in="SourceGraphic"
         result="result1"
         id="feGaussianBlur1996" />
      <feComposite
         in2="result1"
         operator="arithmetic"
         in="fbSourceGraphic"
         k2="0.5"
         k3="0.5"
         result="result2"
         id="feComposite1998" />
      <feBlend
         in2="fbSourceGraphic"
         mode="normal"
         result="result3"
         id="feBlend2000" />
    </filter>
  </defs>
  <sodipodi:namedview
     id="base"
     pagecolor="#ffffff"
     bordercolor="#666666"
     borderopacity="1.0"
     inkscape:pageopacity="0.0"
     inkscape:pageshadow="2"
     inkscape:zoom="0.7"
     inkscape:cx="207.58396"
     inkscape:cy="206.90062"
     inkscape:document-units="mm"
     inkscape:current-layer="layer1"
     showgrid="false"
     inkscape:window-width="1280"
     inkscape:window-height="658"
     inkscape:window-x="-8"
     inkscape:window-y="-8"
     inkscape:window-maximized="1"
     inkscape:snap-nodes="false" />
  <metadata
     id="metadata5">
    <rdf:RDF>
      <cc:Work
         rdf:about="">
        <dc:format>image/svg+xml</dc:format>
        <dc:type
           rdf:resource="http://purl.org/dc/dcmitype/StillImage" />
        <dc:title></dc:title>
      </cc:Work>
    </rdf:RDF>
  </metadata>
  <g
     inkscape:label="Ebene 1"
     inkscape:groupmode="layer"
     id="layer1">
    <g
       id="g1464"
       transform="translate(-6.803571,-124.73214)">
      <path
         inkscape:connector-curvature="0"
         d="m 51.41423,179.04514 c -0.285679,-1.1371 -0.777123,-2.20734 -1.238329,-3.28135 -0.578801,-1.46336 -1.284164,-2.87237 -1.806217,-4.35651 -0.557725,-1.6648 -1.303296,-3.25693 -1.992923,-4.86931 -0.778214,-1.81647 -1.333088,-3.72048 -1.965402,-5.5909 -0.636633,-1.84756 -1.193489,-3.72229 -1.711089,-5.60644 -0.536267,-1.50175 -0.754554,-3.07827 -1.012566,-4.64273 -0.226292,-1.30297 -0.39559,-2.61482 -0.447982,-3.93644 -0.02895,-1.1459 -0.02984,-2.29256 -0.03744,-3.43884 -0.05577,-1.1227 0.09093,-2.23458 0.362134,-3.32213 0.236938,-0.89166 0.699143,-1.68801 1.105369,-2.50769 0.430325,-0.71253 0.900586,-1.41317 1.421848,-2.0637 0.60061,-0.77102 1.256762,-1.49271 1.928065,-2.20274 0.648977,-0.7061 1.401639,-1.30148 2.076166,-1.9812 0.555842,-0.48398 1.132535,-0.94607 1.712294,-1.40142 2.164307,-1.77565 4.589595,-3.63905 7.323758,-4.26925 0,0 -5.187677,4.03003 -5.187677,4.03003 v 0 c -2.167176,1.03768 -0.344324,0.17476 5.032838,-2.94641 0.369725,-0.2146 -1.460873,0.88608 -1.081124,0.68966 -0.499165,0.55853 -1.15045,0.97682 -1.75305,1.41678 -0.717954,0.64121 -1.40178,1.3296 -2.107345,1.98462 -0.711354,0.63708 -1.337778,1.37738 -1.911201,2.1371 -0.562448,0.59503 -0.960257,1.29232 -1.483901,1.91964 -0.422588,0.7914 -0.852852,1.57379 -1.196387,2.40254 -0.315209,1.03659 -0.50694,2.07501 -0.43913,3.16634 -0.01079,1.14105 -0.02123,2.28218 0.01179,3.42301 0.0485,1.30738 0.114036,2.6157 0.326056,3.90909 0.256572,1.54675 0.521499,3.09647 0.975274,4.60036 0.447151,1.89116 1.056651,3.74024 1.608673,5.60244 0.653339,1.84238 1.26528,3.70561 2.032608,5.50364 0.686421,1.62044 1.407785,3.2276 1.996141,4.88718 0.627714,1.43028 1.181693,2.88916 1.800428,4.32323 0.517239,1.0838 1.041217,2.16326 1.482307,3.28015 0,0 -5.823977,3.14125 -5.823977,3.14125 z"
         id="path1383"
         style="fill:#ffff00;fill-opacity:1;stroke:none;stroke-width:0.15633774;stroke-miterlimit:4;stroke-dasharray:none;stroke-opacity:1" />
      <path
         inkscape:connector-curvature="0"
         d="m 53.325989,174.54853 c 0.209474,0.6509 0.510314,1.29815 1.042075,1.74374 0.561425,0.6298 1.242244,1.12537 1.848529,1.70614 0.69073,0.61669 1.442517,1.15477 2.116644,1.78888 0.874609,0.80052 1.57015,1.75206 2.1755,2.76402 0.545782,0.99145 0.68078,2.1227 0.769213,3.23204 0.08395,1.06812 -0.09604,2.10687 -0.476628,3.10109 -0.320234,0.75743 -0.631642,1.5134 -1.078529,2.20659 -0.417318,0.70797 -0.877642,1.39111 -1.352078,2.06194 -0.788495,0.995 -1.591654,1.9789 -2.402285,2.95625 -0.857751,1.04536 -1.673362,2.12504 -2.448307,3.23271 -0.564662,0.88652 -1.208627,1.71194 -1.632365,2.67811 -0.342818,0.73576 -0.614933,1.47863 -0.746667,2.27983 -0.04737,0.77191 -0.273753,1.51247 -0.401421,2.27172 -0.12283,0.79591 -0.171001,1.59162 0.06923,2.36772 0.24584,0.64187 0.639715,1.21956 0.995508,1.80665 0.405725,0.54014 0.818166,1.06484 1.325251,1.51515 0.519414,0.53009 1.087959,1.00712 1.588404,1.55729 0.530755,0.50041 0.981734,1.07237 1.533418,1.55296 0.253846,0.40006 0.713373,0.54727 1.043599,0.8571 0.166945,0.15663 0.311169,0.33611 0.476549,0.49438 0.07406,0.0912 0.148123,0.1824 0.222185,0.2736 0,0 -5.646607,3.38077 -5.646607,3.38077 v 0 c -0.0625,-0.0725 -0.125006,-0.14501 -0.18751,-0.21751 -0.476812,-0.4775 -1.035356,-0.84494 -1.494267,-1.34142 -0.539144,-0.51586 -1.036197,-1.07044 -1.561809,-1.59926 -0.499904,-0.53014 -1.058555,-0.99419 -1.565714,-1.51613 -0.523822,-0.51355 -1.007395,-1.06117 -1.425807,-1.66458 -0.380901,-0.63136 -0.787989,-1.26118 -1.048993,-1.95203 -0.28271,-0.85933 -0.333826,-1.73025 -0.210092,-2.62664 0.09086,-0.77079 0.322437,-1.50474 0.409697,-2.26916 0.08896,-0.85427 0.256324,-1.6863 0.706469,-2.4338 0.367046,-1.05435 0.984527,-1.92634 1.61138,-2.83951 0.788181,-1.11487 1.592177,-2.21968 2.4489,-3.28332 0.77624,-0.96558 1.545526,-1.93658 2.355179,-2.87438 0.443215,-0.67892 0.883579,-1.33541 1.351629,-1.99527 0.344227,-0.73176 0.901922,-1.36097 1.121272,-2.16446 0.453949,-0.8802 0.719659,-1.82778 0.630417,-2.82702 -0.04973,-1.01784 -0.126574,-2.05504 -0.606996,-2.9761 -0.561687,-0.97638 -1.228849,-1.86132 -2.106138,-2.58115 -0.689178,-0.61916 -1.438482,-1.16564 -2.121131,-1.79277 -0.62225,-0.56759 -1.301767,-1.07221 -1.877573,-1.69167 -0.569614,-0.58678 -0.931597,-1.30515 -1.274109,-2.04125 0,0 5.823975,-3.14125 5.823975,-3.14125 z"
         id="path1385"
         style="fill:#ffff00;fill-opacity:1;stroke:none;stroke-width:0.15633774;stroke-miterlimit:4;stroke-dasharray:none;stroke-opacity:1" />
      <path
         inkscape:connector-curvature="0"
         d="m 49.216299,178.40787 c 1.918262,-2.25769 4.822241,-3.64549 7.635079,-4.56647 1.00022,-0.25108 2.044368,-0.2693 3.07084,-0.29537 0.942262,-0.0156 1.884707,-0.01 2.827046,-0.007 0.946007,-0.0767 1.856778,0.091 2.782298,0.25065 0.969891,0.0351 1.67689,0.67759 2.48485,1.11518 0.728697,0.42732 1.01921,1.18958 1.345333,1.92141 0.266051,0.55614 0.673446,0.93326 1.178145,1.2716 0.635716,0.48221 1.34226,0.83314 2.111546,1.0422 1.012783,0.19146 2.048344,0.20019 3.075641,0.2129 1.229768,0.0121 2.459513,0.004 3.689288,0.005 1.248979,-0.0105 2.49797,-0.003 3.746961,-0.005 1.297282,-0.002 2.594565,0.005 3.891842,0.004 1.596645,0.0615 3.195641,-0.084 4.770187,-0.34286 1.8816,-0.40781 3.808597,-0.55667 5.663295,-1.08095 1.714531,-0.47954 3.45406,-0.84704 5.16004,-1.36154 1.23001,-0.28596 2.43952,-0.64003 3.65161,-0.99278 0,0 -5.10328,3.92354 -5.10328,3.92354 v 0 c -1.198402,0.34871 -2.410171,0.64159 -3.615732,0.96354 -1.718335,0.47438 -3.458426,0.86425 -5.174953,1.34536 -1.889096,0.41882 -3.820305,0.61213 -5.709945,1.03498 -1.615625,0.20974 -3.240218,0.32851 -4.870664,0.30018 -1.300627,-0.001 -2.601253,0.006 -3.901879,0.004 -1.24739,-0.001 -2.494762,0.008 -3.742152,0.003 -1.240053,0.007 -2.480384,0.0124 -3.720354,0.001 -1.079908,-0.0253 -2.171281,-0.0529 -3.21946,-0.34291 -0.808078,-0.29088 -1.567534,-0.69227 -2.264402,-1.19564 -0.56161,-0.4394 -1.046496,-0.91261 -1.346302,-1.57291 -0.268083,-0.61752 -0.47427,-1.24382 -1.107523,-1.5791 -0.74773,-0.45215 -1.441245,-0.8928 -2.349823,-0.92932 -0.902479,-0.15458 -1.800365,-0.19842 -2.716414,-0.16341 -0.932435,-0.004 -1.865183,-0.0118 -2.797348,0.0161 -0.998268,0.0437 -2.014752,0.0958 -2.950455,0.48099 -0.273928,0.12555 -1.06822,0.55719 -0.807486,0.40626 9.356923,-5.41644 6.266386,-3.76632 4.388898,-2.5173 0,0 -6.074727,2.65095 -6.074727,2.65095 z"
         id="path1387"
         style="fill:#ffff00;fill-opacity:1;stroke:none;stroke-width:0.15633774;stroke-miterlimit:4;stroke-dasharray:none;stroke-opacity:1" />
      <path
         inkscape:connector-curvature="0"
         d="m 46.94862,177.70897 c -0.123902,-0.79877 -0.442627,-1.57348 -0.846161,-2.2714 -0.365721,-0.70857 -0.708554,-1.412 -1.24875,-2.00748 -0.395249,-0.67518 -0.863828,-1.23981 -1.484526,-1.70919 -0.569132,-0.59125 -1.198914,-1.10833 -1.928442,-1.48798 -0.741213,-0.57049 -1.640159,-0.82465 -2.474733,-1.20849 -0.950446,-0.33735 -1.8438,-0.80925 -2.800015,-1.13063 -1.065521,-0.46156 -2.155202,-0.88811 -3.261351,-1.24697 -0.928016,-0.35164 -1.910567,-0.53481 -2.848519,-0.84679 -0.759488,-0.17593 -1.433977,-0.55833 -2.191588,-0.73804 -0.834013,-0.28302 -1.671423,-0.56523 -2.522786,-0.79712 0,0 5.400082,-3.68236 5.400082,-3.68236 v 0 c 0.845504,0.26555 1.692281,0.52131 2.540792,0.77648 0.732941,0.23702 1.428321,0.57576 2.177957,0.76616 0.950096,0.26661 1.884464,0.55675 2.810888,0.8987 1.104637,0.40394 2.219829,0.77965 3.303872,1.23205 0.950317,0.37307 1.876677,0.80526 2.83377,1.16249 0.863966,0.37125 1.744991,0.70982 2.520328,1.25463 0.725423,0.4415 1.377561,0.96965 1.989209,1.55764 0.646043,0.50497 1.107207,1.1434 1.559594,1.82224 0.531286,0.6516 0.936369,1.37006 1.296197,2.12718 0.41635,0.75522 0.762938,1.55762 0.998157,2.38762 0,0 -5.823975,3.14126 -5.823975,3.14126 z"
         id="path1389"
         style="fill:#ffff00;fill-opacity:1;stroke:none;stroke-width:0.15633774;stroke-miterlimit:4;stroke-dasharray:none;stroke-opacity:1" />
      <path
         inkscape:connector-curvature="0"
         d="m 48.320837,176.15186 c -0.561723,0.78233 -1.159298,1.53783 -1.775835,2.27832 -0.557578,0.71433 -1.073996,1.45588 -1.632938,2.16963 -0.480166,0.70909 -1.034268,1.36463 -1.50469,2.07987 -0.470312,0.61107 -0.77617,1.3197 -1.055547,2.03176 -0.426525,0.80169 -0.71251,1.65026 -0.96791,2.5172 -0.305405,0.74831 -0.467911,1.52759 -0.552055,2.32753 -0.02472,0.79986 -0.06853,1.5823 -0.38377,2.32606 -1.294965,2.61162 -4.605269,3.18495 -6.976254,4.67485 -0.102967,0.0445 -0.209129,0.0822 -0.3089,0.13338 -0.157457,0.0808 -1.973553,1.08726 -1.027803,0.54517 7.819775,-4.48216 6.224128,-3.57011 -0.794451,0.4837 1.736337,-0.99528 3.46629,-2.00174 5.209013,-2.98586 0.124712,-0.0704 -0.229854,0.17183 -0.353573,0.24398 -1.982312,1.15594 -3.998167,2.25498 -5.963378,3.4396 -1.738974,1.04825 3.518166,-2.02871 5.284519,-3.03039 0.232578,-0.13189 -0.440206,0.30365 -0.653977,0.46411 -0.603636,0.38019 -1.069713,0.8821 -1.514595,1.42692 -0.363252,0.53256 -0.834828,0.97569 -1.178864,1.52063 -0.410865,0.52021 -0.618911,1.15652 -0.867569,1.76261 -0.135316,0.34221 -0.192804,0.70367 -0.251207,1.06433 0,0 -5.880649,2.8954 -5.880649,2.8954 v 0 c 0.03821,-0.39648 0.07418,-0.79429 0.175806,-1.1811 0.199109,-0.66475 0.491122,-1.30508 0.779231,-1.93212 0.41328,-0.49056 0.67945,-1.09371 1.187824,-1.51412 0.391151,-0.63759 0.856422,-1.1858 1.449459,-1.64547 0.224249,-0.14551 0.410457,-0.34602 0.640124,-0.48285 1.96472,-1.17058 3.959472,-2.29035 5.930787,-3.44984 1.739244,-1.023 -3.489711,2.02688 -5.234566,3.04033 0.121994,-0.0775 0.241557,-0.15895 0.365979,-0.23251 1.981492,-1.17159 3.967707,-2.33521 5.951562,-3.50281 -11.383119,6.57926 -1.607662,0.81131 2.178532,-1.18606 2.170067,-1.04637 0.06084,-0.039 -5.034366,2.96964 -0.08858,0.0523 0.19288,-0.0753 0.279997,-0.12996 0.298962,-0.18773 0.190963,-0.18512 0.412362,-0.45585 0.06258,-0.0765 0.138832,-0.14082 0.208247,-0.21123 0.397395,-0.78987 0.547292,-1.20786 0.509289,-2.13402 0.05591,-0.84518 0.148375,-1.69264 0.486015,-2.47983 0.34965,-0.83714 0.464201,-1.7663 0.925427,-2.56592 0.377667,-0.69147 0.535803,-1.49798 1.001493,-2.15057 0.534805,-0.65052 -0.04979,0.095 0.455659,-0.672 0.327901,-0.49756 0.818294,-0.87463 1.059661,-1.43587 0.566241,-0.71506 1.12841,-1.41849 1.63547,-2.17608 0.572045,-0.74349 1.270422,-1.4075 1.721093,-2.23361 0,0 6.065348,-2.60695 6.065348,-2.60695 z"
         id="path1391"
         style="fill:#ffff00;fill-opacity:1;stroke:none;stroke-width:0.15633774;stroke-miterlimit:4;stroke-dasharray:none;stroke-opacity:1" />
      <path
         inkscape:connector-curvature="0"
         d="m 45.67733,149.94697 c 0.920833,0.22305 1.868326,0.28738 2.811395,0.33655 0.927793,0.064 1.838587,-0.17873 2.75532,-0.2904 0.842007,-0.13505 1.719448,-0.24931 2.532997,-0.51423 1.087329,-0.3027 2.22702,-0.37507 3.349674,-0.4424 0.986916,-0.05 1.975346,-0.0515 2.963257,-0.0525 0.861798,-0.0864 1.509739,0.25678 2.199936,0.7041 0.567009,0.43614 0.884631,1.09659 1.441538,1.54053 0.621362,0.34286 1.215674,0.72395 1.878948,0.98409 0.81164,0.26946 1.670509,0.30524 2.517913,0.3342 0.893172,0.0193 1.786652,0.0126 2.679955,0.01 0.906647,0.0684 1.782044,-0.0705 2.670822,-0.22071 0.82883,-0.05 1.60293,-0.3418 2.41069,-0.50376 0.834159,-0.0528 1.603929,-0.27973 2.368346,-0.5991 0.721916,-0.20989 1.389383,-0.54543 2.12104,-0.72494 0.563706,-0.23482 1.13576,-0.44515 1.708292,-0.65769 0,0 -1.72042,1.34441 -1.72042,1.34441 v 0 c -0.572503,0.22091 -1.146488,0.43729 -1.724727,0.64257 -0.714838,0.2073 -1.392826,0.51975 -2.102011,0.7452 -0.77182,0.30802 -1.568072,0.47037 -2.392732,0.56862 -0.801398,0.17996 -1.585965,0.4279 -2.410253,0.4918 -0.894543,0.15015 -1.783037,0.24318 -2.692656,0.19235 -0.895222,0.002 -1.790728,0.009 -2.685691,-0.017 -0.866519,-0.0378 -1.743517,-0.0911 -2.565354,-0.39352 -0.673782,-0.28272 -1.299503,-0.65602 -1.922194,-1.03607 -0.532106,-0.45745 -0.864162,-1.09153 -1.4231,-1.52108 -0.664249,-0.42544 -1.306953,-0.68339 -2.121148,-0.60624 -0.981853,9.5e-4 -1.964293,0.003 -2.945021,0.0556 -1.121851,0.0721 -2.256255,0.1589 -3.33588,0.49251 -0.8362,0.2168 -1.695655,0.37716 -2.552095,0.4855 -0.917803,0.12175 -1.833887,0.338 -2.765398,0.24899 -0.962598,-0.0546 -1.925785,-0.13259 -2.868192,-0.34747 0,0 1.816749,-1.24984 1.816749,-1.24984 z"
         id="path1393"
         style="fill:#ffff00;fill-opacity:1;stroke:none;stroke-width:0.15633774;stroke-miterlimit:4;stroke-dasharray:none;stroke-opacity:1" />
      <path
         inkscape:connector-curvature="0"
         d="m 44.132951,149.03212 c 1.337802,-0.94338 2.72196,-1.51001 4.260543,-1.95061 0.837805,-0.16282 1.670804,-0.36299 2.471038,-0.66354 0.993015,-0.34625 2.028924,-0.54569 3.038419,-0.83606 1.593764,-0.35503 3.154224,-0.84499 4.705811,-1.35123 1.330248,-0.43395 2.652153,-0.89616 3.938775,-1.44473 1.481176,-1.00184 -2.188676,1.74237 -0.961107,0.34905 0.0935,-0.10612 0.180604,-0.21769 0.270908,-0.32654 0,0 2.00785,-0.85453 2.00785,-0.85453 v 0 c -0.828205,1.04874 -1.757034,1.58278 -3.025026,2.17662 -1.275301,0.53302 -2.59244,0.96344 -3.9051,1.3947 -1.569469,0.50139 -3.140595,1.0035 -4.747343,1.37227 -1.018484,0.27486 -2.051488,0.50419 -3.046071,0.86071 -0.81039,0.26947 -1.636954,0.47151 -2.471465,0.64982 -0.911393,0.28115 -4.069679,1.62399 -0.478933,-0.17918 0,0 -2.058299,0.80325 -2.058299,0.80325 z"
         id="path1395"
         style="fill:#ffff00;fill-opacity:1;stroke:none;stroke-width:0.15633774;stroke-miterlimit:4;stroke-dasharray:none;stroke-opacity:1" />
      <path
         inkscape:connector-curvature="0"
         d="m 63.955238,151.367 c 0.64632,0.58153 1.340282,1.10215 1.946728,1.72846 0.615921,0.55797 1.262364,1.08839 1.919217,1.59879 0.69538,0.54949 1.396483,1.08849 2.089406,1.64202 0.945694,0.64015 1.868798,1.31018 2.796818,1.9769 0.82453,0.52644 1.512537,1.23503 2.34242,1.74939 0.763017,0.40459 1.622808,0.46329 2.468634,0.50394 0.896215,0.0523 1.774253,0.0275 2.656456,-0.13061 0.607651,-0.0702 1.192446,-0.22252 1.781985,-0.3783 0,0 -1.729292,1.32178 -1.729292,1.32178 v 0 c -0.592653,0.15244 -1.187225,0.28147 -1.794291,0.36376 -0.891518,0.14244 -1.785766,0.13973 -2.686784,0.0925 -0.875368,-0.0549 -1.757133,-0.14649 -2.530991,-0.59674 -0.818139,-0.53638 -1.517128,-1.23224 -2.340523,-1.76486 -0.930123,-0.66869 -1.848325,-1.35084 -2.802165,-1.98515 -0.700472,-0.54695 -1.406236,-1.08488 -2.106749,-1.63132 -0.653663,-0.52597 -1.308891,-1.05594 -1.917599,-1.63274 -0.602978,-0.61356 -1.289272,-1.12582 -1.954655,-1.66908 0,0 1.861385,-1.18871 1.861385,-1.18871 z"
         id="path1397"
         style="fill:#ffff00;fill-opacity:1;stroke:none;stroke-width:0.15633774;stroke-miterlimit:4;stroke-dasharray:none;stroke-opacity:1" />
      <path
         inkscape:connector-curvature="0"
         d="m 49.234511,137.40045 c 0.899806,0.0122 1.799753,0.01 2.699624,0.009 0.934097,-0.0545 1.805233,-0.36424 2.702889,-0.58921 1.098985,-0.35517 2.236431,-0.60182 3.31921,-1.00243 1.217637,-0.39782 2.371107,-0.96106 3.51237,-1.53794 1.611904,-0.90332 -0.600156,0.33687 -0.730359,0.40564 -0.174851,0.0924 0.341375,-0.19983 0.507781,-0.30658 0.408386,-0.262 0.741673,-0.56843 1.092305,-0.89964 0.287826,-0.25565 0.460152,-0.57211 0.621958,-0.91259 0,0 1.989437,-0.9111 1.989437,-0.9111 v 0 c -0.145791,0.36921 -0.298571,0.71514 -0.592605,0.99652 -0.222219,0.2083 -0.42446,0.43829 -0.657496,0.63448 -0.31051,0.26143 -0.598855,0.41433 -0.949203,0.62047 -2.515294,1.47993 -1.588516,0.96808 -2.96166,1.71415 -1.149534,0.57748 -2.318114,1.12784 -3.543661,1.52699 -1.100983,0.36528 -2.227417,0.65482 -3.337204,0.99316 -0.900545,0.24022 -1.792043,0.51743 -2.733859,0.54352 -0.908549,-1.5e-4 -1.817172,-0.003 -2.725659,0.009 0,0 1.786132,-1.29431 1.786132,-1.29431 z"
         id="path1399"
         style="fill:#ffff00;fill-opacity:1;stroke:none;stroke-width:0.15633774;stroke-miterlimit:4;stroke-dasharray:none;stroke-opacity:1" />
      <path
         inkscape:connector-curvature="0"
         d="m 42.571227,140.31698 c -0.652952,-0.33957 -1.191335,-0.8489 -1.831089,-1.20882 -0.623831,-0.4147 -1.202766,-0.87571 -1.874568,-1.21401 -0.894579,-0.3519 -1.779315,-0.68574 -2.72822,-0.85726 -0.807388,-0.3018 -1.643122,-0.43593 -2.497326,-0.51269 -0.873833,0.0228 -1.710845,-0.20696 -2.564272,-0.35095 -0.831994,-0.1248 -1.674554,-0.14176 -2.514187,-0.15575 -0.835813,-0.0702 -1.382272,-0.35222 -1.724554,-1.12313 -0.355535,-0.65613 -0.508089,-1.38958 -0.717967,-2.09925 -0.26539,-0.8154 -0.622727,-1.59255 -0.926874,-2.39246 -0.21429,-0.42051 -0.107942,-0.20936 -0.319023,-0.63347 0,0 1.904604,-1.08045 1.904604,-1.08045 v 0 c 0.212329,0.43047 0.103828,0.21219 0.325633,0.65477 0.300518,0.80662 0.653932,1.59133 0.931994,2.40716 0.209975,0.69982 0.365904,1.42218 0.712985,2.07111 0.301693,0.69706 0.841575,0.87695 1.580472,0.92012 0.848019,0.0176 1.699069,0.0413 2.537613,0.18034 0.845689,0.15189 1.680489,0.35075 2.546553,0.34286 0.858887,0.0872 1.694545,0.24344 2.511905,0.52768 0.95814,0.19549 1.85768,0.54552 2.763479,0.90791 0.670446,0.34861 1.259612,0.80296 1.887515,1.21944 0.634318,0.37984 1.188783,0.88119 1.856711,1.20814 0,0 -1.861384,1.18871 -1.861384,1.18871 z"
         id="path1401"
         style="fill:#ffff00;fill-opacity:1;stroke:none;stroke-width:0.15633774;stroke-miterlimit:4;stroke-dasharray:none;stroke-opacity:1" />
      <path
         inkscape:connector-curvature="0"
         d="m 39.42951,149.3842 c -0.899806,-0.0122 -1.799754,-0.01 -2.699625,-0.009 -0.931711,4.6e-4 -1.863422,9.4e-4 -2.795133,0.001 -0.861942,-0.0157 -1.705387,-0.035 -2.549638,0.14646 -0.7857,0.18454 -1.591086,0.23977 -2.394815,0.27547 -0.882776,0.0292 -1.766201,0.0269 -2.649346,0.0269 -0.893979,-9.4e-4 -1.787959,-0.002 -2.681938,-0.003 -0.844823,-0.075 -1.646439,0.0544 -2.467978,0.2209 -0.527225,0.10493 -1.063225,0.14581 -1.598604,0.18128 0,0 1.757358,-1.2933 1.757358,-1.2933 v 0 c 0.531643,-0.0431 1.063131,-0.0946 1.585717,-0.20588 0.825306,-0.16528 1.644272,-0.22894 2.487629,-0.18117 0.893946,6.5e-4 1.787893,0.002 2.68184,0.002 0.881699,-7.7e-4 1.763828,6.5e-4 2.644905,-0.0371 0.800125,-0.0447 1.59809,-0.12089 2.380153,-0.30405 0.850166,-0.15316 1.707254,-0.10542 2.568183,-0.10718 0.930589,3.1e-4 1.861176,7.6e-4 2.791765,0.001 0.908549,1.5e-4 1.81717,0.003 2.725657,-0.009 0,0 -1.78613,1.29431 -1.78613,1.29431 z"
         id="path1403"
         style="fill:#ffff00;fill-opacity:1;stroke:none;stroke-width:0.15633774;stroke-miterlimit:4;stroke-dasharray:none;stroke-opacity:1" />
      <path
         inkscape:connector-curvature="0"
         d="m 33.194121,167.72 c -1.045757,0.29007 -2.081946,0.60823 -3.128001,0.89959 -0.596461,0.15138 -1.218529,0.21303 -1.791654,0.45127 -0.11113,0.0462 -0.211591,0.11463 -0.317386,0.17194 0.539073,-0.29301 1.078146,-0.58603 1.617219,-0.87904 -0.515903,0.4307 -1.038233,0.85597 -1.599369,1.22721 -0.74191,0.41462 -1.485535,0.8262 -2.225734,1.24385 -0.10864,0.0613 -0.211732,0.13208 -0.320637,0.19291 -1.419331,0.79273 2.323938,-1.31084 0.968584,-0.52504 -0.724247,0.41991 -1.4554,0.82785 -2.183101,1.24177 -0.738418,0.39126 -1.532292,0.691 -2.33303,0.93149 -0.693579,0.41459 -1.503121,0.4869 -2.24783,0.7461 -0.73724,0.25062 -1.505879,0.36361 -2.259104,0.55666 -0.873287,0.12605 -1.688025,0.39335 -2.490254,0.74764 -0.76683,0.30507 -1.584752,0.47969 -2.340791,0.80853 -0.942076,0.19376 -3.5047943,1.61941 -0.166964,-0.26157 -0.624383,0.36298 -1.239792,0.74236 -1.80861,1.18805 -1.1358573,0.80541 -2.3138144,1.69354 -3.6497975,2.10761 -0.4056802,0.19784 -0.1999151,0.10409 -0.617362,0.28108 0,0 1.720105,-1.35664 1.720105,-1.35664 v 0 c 0.4154719,-0.18178 0.2068909,-0.0925 0.6257483,-0.26779 0.8890292,-0.34582 0.4597879,-0.19918 -1.2462749,0.80229 -0.095569,0.0561 0.1922041,-0.11074 0.2840759,-0.17267 0.5666713,-0.38206 -0.035402,-0.0331 0.5737553,-0.36805 0.097229,-0.0626 0.185343,-0.13826 0.2780145,-0.20739 0.5427861,-0.48171 1.1746703,-0.84447 1.7925084,-1.22151 1.541054,-0.87563 2.380311,-1.38995 3.932622,-1.87147 0.773086,-0.28617 1.57241,-0.5017 2.336624,-0.81291 0.80775,-0.34527 1.6471,-0.55584 2.509794,-0.71864 0.75287,-0.19178 1.524404,-0.30478 2.257234,-0.57012 0.759802,-0.21344 1.525388,-0.39104 2.240335,-0.74043 0.795553,-0.26159 1.585178,-0.5629 2.318713,-0.96905 -5.47683,3.21824 5.268478,-3.13833 0.01099,0.005 0.576751,-0.34306 1.088239,-0.77651 1.605041,-1.19919 1.840514,-1.12478 2.339524,-1.54943 4.24567,-1.88184 1.055454,-0.30202 2.109513,-0.60628 3.162072,-0.91717 0,0 -1.753195,1.33709 -1.753195,1.33709 z"
         id="path1405"
         style="fill:#ffff00;fill-opacity:1;stroke:none;stroke-width:0.15633774;stroke-miterlimit:4;stroke-dasharray:none;stroke-opacity:1" />
      <path
         inkscape:connector-curvature="0"
         d="m 29.728323,163.72177 c 0.01842,-0.90413 0.01466,-1.80856 0.01433,-2.71283 -0.02112,-0.88881 -0.470104,-1.59152 -0.988734,-2.27261 -0.539529,-0.55328 -1.155404,-1.05286 -1.840869,-1.41474 -0.717075,-0.31913 -1.44103,-0.60893 -2.190298,-0.84862 -0.877292,-0.2744 -1.717275,-0.58928 -2.63035,-0.73116 -1.165486,-0.13695 -2.34225,-0.13423 -3.514193,-0.13979 -0.677887,-0.001 -1.355771,0.002 -2.033652,0.004 0,0 1.760845,-1.27657 1.760845,-1.27657 v 0 c 0.675288,-5.9e-4 1.350587,-0.001 2.02586,0.004 1.181093,0.0126 2.368571,0.0118 3.541744,0.16144 0.916619,0.15788 1.764542,0.48535 2.650171,0.75691 0.761029,0.24645 1.501272,0.53129 2.222624,0.87718 0.697069,0.39741 1.341761,0.90602 1.886821,1.49403 0.543966,0.72014 1.007562,1.46856 1.048506,2.40052 -3.12e-4,0.89941 -0.0042,1.799 0.01433,2.69826 0,0 -1.967146,0.99969 -1.967146,0.99969 z"
         id="path1407"
         style="fill:#ffff00;fill-opacity:1;stroke:none;stroke-width:0.15633774;stroke-miterlimit:4;stroke-dasharray:none;stroke-opacity:1" />
      <path
         inkscape:connector-curvature="0"
         d="m 35.636567,170.27933 c -0.525945,0.59576 -0.991035,1.23911 -1.458405,1.88053 -0.550229,0.73902 -0.957231,1.56913 -1.349363,2.39863 -0.405933,0.80392 -0.562362,1.679 -0.648956,2.56526 -0.04334,0.82802 -0.01229,1.64986 -0.289636,2.4412 -0.570865,0.92006 -1.665918,1.19413 -2.612826,1.71477 -0.306284,0.16841 -0.619248,0.27963 -0.952407,0.381 -0.760459,0.0815 -1.445481,0.37054 -2.144799,0.65641 -0.948665,0.24514 -1.821746,0.65167 -2.672611,1.12652 1.299197,-0.75744 -2.528693,1.38957 -1.241437,0.60939 0.492385,-0.29842 1.998051,-1.1454 1.503116,-0.8512 -1.461951,0.86902 -3.857296,2.18372 -0.658203,0.41283 -0.555376,0.38064 -1.076831,0.79404 -1.395271,1.39387 -0.286672,0.74668 -0.289526,1.55831 -0.308478,2.34696 -0.0015,0.14661 -0.0031,0.29322 -0.0046,0.43984 0,0 -1.944138,0.98595 -1.944138,0.98595 v 0 c 9.45e-4,-0.14731 0.0019,-0.29461 0.0028,-0.44192 0.01407,-0.81246 0.01557,-1.64113 0.258205,-2.4247 0.276213,-0.65376 0.766857,-1.1082 1.356929,-1.49533 0.72349,-0.43679 1.466282,-0.84324 2.170469,-1.31036 0.48587,-0.32229 -2.021952,1.16292 -1.514659,0.87533 1.151936,-0.65305 2.273813,-1.33724 3.469146,-1.90403 0.858073,-0.47094 1.761071,-0.8203 2.695711,-1.11279 0.701103,-0.29034 1.411714,-0.50772 2.158508,-0.6476 0.381593,-0.13721 0.275486,-0.09 0.639024,-0.25605 0.101238,-0.0462 0.396166,-0.20154 0.302257,-0.14187 -2.997681,1.90491 -1.592786,1.08408 -1.09701,0.56062 0.348681,-0.75523 0.285359,-1.57585 0.327941,-2.38916 0.07792,-0.90607 0.216145,-1.80714 0.617548,-2.63507 0.399202,-0.83329 0.784646,-1.6815 1.329458,-2.43181 0.449705,-0.64063 0.906408,-1.28758 1.436753,-1.86357 0,0 2.024909,-0.88365 2.024909,-0.88365 z"
         id="path1409"
         style="fill:#ffff00;fill-opacity:1;stroke:none;stroke-width:0.15633774;stroke-miterlimit:4;stroke-dasharray:none;stroke-opacity:1" />
      <path
         inkscape:connector-curvature="0"
         d="m 36.201586,193.41135 c 0.170254,0.77393 0.417362,1.54886 0.821531,2.23408 0.379896,0.70326 0.822884,1.36756 1.090354,2.12403 0.272121,0.7882 -0.0017,1.47922 -0.468422,2.12115 -0.541678,0.73313 -1.136476,1.42564 -1.653969,2.17604 -0.493706,0.80305 -0.629246,1.7224 -0.706592,2.64288 -0.129501,0.78113 0.184485,1.43068 0.472752,2.1251 0.405098,0.73295 0.611444,1.52792 0.734309,2.34905 0.135816,0.81869 -0.01532,1.53519 -0.556383,2.16232 -0.493959,0.49958 -1.033342,0.95402 -1.56291,1.41591 -0.481953,0.52679 -0.952875,1.07229 -1.413543,1.62097 -0.483458,0.49759 -0.877597,1.06614 -1.292382,1.61856 0,0 -2.007915,0.8593 -2.007915,0.8593 v 0 c 0.433161,-0.53882 0.784502,-1.14436 1.292273,-1.62326 0.443459,-0.56799 0.959261,-1.07871 1.387446,-1.65607 0.547328,-0.43776 1.058044,-0.92492 1.57542,-1.39601 0.585412,-0.53652 0.772897,-1.19864 0.648071,-1.98578 -0.113534,-0.80509 -0.30875,-1.58398 -0.717389,-2.29664 -0.299372,-0.72358 -0.634125,-1.40836 -0.509106,-2.22191 0.06964,-0.94745 0.192149,-1.89755 0.662456,-2.74261 0.483615,-0.77244 1.111191,-1.44285 1.637748,-2.18758 0.465403,-0.56157 0.807746,-1.18597 0.562755,-1.92609 -0.255766,-0.74482 -0.694048,-1.39765 -1.065193,-2.0885 -0.416638,-0.70213 -0.662227,-1.49274 -0.872637,-2.27785 0,0 1.941326,-1.04709 1.941326,-1.04709 z"
         id="path1411"
         style="fill:#ffff00;fill-opacity:1;stroke:none;stroke-width:0.15633774;stroke-miterlimit:4;stroke-dasharray:none;stroke-opacity:1" />
      <path
         inkscape:connector-curvature="0"
         d="m 52.791209,207.93197 c 0.76671,0.47555 1.545643,0.91347 2.34724,1.32835 0.943365,0.48282 1.998348,0.61889 3.04061,0.70661 0.810516,0.18613 1.621205,0.34462 2.449699,0.42218 0.75147,0.0138 1.454237,0.25332 2.055733,0.69641 0.608401,0.3526 1.148171,0.79814 1.710933,1.21885 0.741722,0.45205 1.403348,1.02296 2.154309,1.45892 0.745095,0.50178 1.564563,0.86945 2.334864,1.33011 0.710656,0.34304 1.456554,0.63347 2.208331,0.87937 0.672601,0.3207 1.355221,0.62813 2.065008,0.85795 0.802526,0.27556 1.581145,0.61098 2.381981,0.8899 0.751552,0.17443 1.412433,0.58422 2.13026,0.85163 0.648145,0.34011 1.339733,0.57554 1.938168,1.00299 0.597502,0.30495 1.084958,0.70386 1.51506,1.21662 0,0 -1.8816,1.12877 -1.8816,1.12877 v 0 c -0.424236,-0.49324 -0.910309,-0.86105 -1.483574,-1.16901 -0.593834,-0.39888 -1.265832,-0.6417 -1.901921,-0.96377 -0.710857,-0.27981 -1.382773,-0.66045 -2.12889,-0.84689 -0.79396,-0.29302 -1.5748,-0.6162 -2.377349,-0.88716 -0.706491,-0.24283 -1.390558,-0.54494 -2.068996,-0.85641 -0.757625,-0.26522 -1.519071,-0.54712 -2.22965,-0.91934 -0.773515,-0.44988 -1.579709,-0.84027 -2.32562,-1.33578 -0.753276,-0.44866 -1.435376,-1.00309 -2.176047,-1.47208 -0.566725,-0.41401 -1.113896,-0.8503 -1.717705,-1.2095 -0.593183,-0.40292 -1.265034,-0.59197 -1.983445,-0.60865 -0.823972,-0.0884 -1.628143,-0.26379 -2.439449,-0.42728 -1.061838,-0.10658 -2.131154,-0.27262 -3.087098,-0.77574 -0.814285,-0.41673 -1.596509,-0.87886 -2.392235,-1.32834 0,0 1.861383,-1.18871 1.861383,-1.18871 z"
         id="path1413"
         style="fill:#ffff00;fill-opacity:1;stroke:none;stroke-width:0.15633774;stroke-miterlimit:4;stroke-dasharray:none;stroke-opacity:1" />
      <path
         inkscape:connector-curvature="0"
         d="m 49.06957,213.05671 c -0.166188,0.81537 -0.371693,1.62382 -0.668002,2.40267 -0.349519,0.70775 -0.499476,1.46742 -0.582412,2.24479 -0.06309,0.8377 -0.0249,1.67161 -0.180054,2.49954 -0.165494,0.69388 -0.597259,1.14487 -1.139663,1.57044 -0.04649,0.0379 -0.44624,0.36672 -0.494995,0.39606 -0.712956,0.42897 -1.438486,0.8368 -2.15909,1.25287 -0.105291,0.0608 -0.424225,0.23781 -0.318554,0.17767 3.107469,-1.76829 0.774451,-0.43234 -0.729281,0.433 0.50531,-0.28095 1.004201,-0.57369 1.515925,-0.84283 0.121014,-0.0636 -0.224273,0.15689 -0.34245,0.22564 -0.737447,0.42899 -1.486727,0.83755 -2.223783,1.26722 -0.513987,0.29962 1.034274,-0.58843 1.554534,-0.87708 0.204972,-0.11373 -0.398099,0.24791 -0.590134,0.38224 -0.306476,0.30265 -0.170294,0.13717 -0.408395,0.49656 0,0 -2.004089,0.88899 -2.004089,0.88899 v 0 c 0.212681,-0.41201 0.08712,-0.21998 0.375404,-0.57692 0.804884,-0.64904 2.009506,-1.23645 2.776019,-1.67997 0.50704,-0.29338 -1.006735,0.59932 -1.515006,0.89057 -0.118694,0.068 0.230645,-0.14712 0.345969,-0.22068 0.737529,-0.44057 1.475059,-0.88114 2.212588,-1.32171 -0.495425,0.28776 -1.978809,1.15593 -1.486278,0.86327 0.737912,-0.43846 1.480663,-0.86878 2.222448,-1.3007 0.389134,-0.22658 2.761196,-1.5135 -1.265825,0.75117 -0.184531,0.10377 0.713201,-0.46578 0.493968,-0.39882 0.551719,-0.37175 0.997146,-0.77489 1.211698,-1.42444 0.173954,-0.82211 0.153019,-1.64489 0.193322,-2.48216 0.07182,-0.79285 0.192555,-1.57995 0.553105,-2.30109 0.331818,-0.74908 0.527513,-1.55972 0.662618,-2.3653 0,0 1.990413,-0.951 1.990413,-0.951 z"
         id="path1415"
         style="fill:#ffff00;fill-opacity:1;stroke:none;stroke-width:0.15633774;stroke-miterlimit:4;stroke-dasharray:none;stroke-opacity:1" />
      <path
         inkscape:connector-curvature="0"
         d="m 75.905021,182.30021 c 0.0047,0.88163 -0.06885,1.76943 0.03556,2.64643 0.08928,0.75112 0.36348,1.4543 0.653438,2.14765 0.291335,0.77124 0.751989,1.46186 1.254975,2.11034 0.671497,0.68593 1.385165,1.32519 2.105627,1.95929 0.667621,0.64658 1.433179,1.1619 2.186102,1.69723 0.597508,0.32918 1.049526,0.8521 1.634611,1.19542 0.613912,0.43824 1.255607,0.83811 1.851171,1.30155 0.681144,0.43603 1.19146,1.07142 1.67533,1.70707 0.441728,0.52524 0.814736,1.07126 1.288221,1.56919 0.53228,0.54752 1.104488,1.05591 1.645286,1.59593 0.378538,0.35186 0.834685,0.60593 1.292143,0.84023 0,0 -1.827099,1.19384 -1.827099,1.19384 v 0 c -0.471666,-0.25227 -0.944052,-0.51697 -1.328863,-0.89442 -0.545371,-0.53905 -1.117755,-1.05074 -1.656019,-1.59633 -0.480125,-0.50235 -0.847114,-1.06403 -1.294571,-1.59356 -0.474017,-0.62181 -0.976064,-1.23198 -1.641606,-1.66015 -0.596309,-0.45317 -1.234494,-0.84676 -1.847792,-1.27628 -0.573631,-0.36578 -1.044883,-0.86824 -1.636094,-1.21188 -0.759249,-0.53728 -1.505183,-1.08666 -2.187951,-1.72234 -0.733665,-0.63896 -1.452012,-1.29391 -2.127838,-1.99368 -0.51978,-0.66059 -0.994736,-1.36322 -1.293355,-2.15367 -0.306575,-0.70832 -0.580896,-1.43408 -0.677179,-2.20404 -0.111848,-0.88109 -0.03119,-1.77177 -0.07126,-2.65812 0,0 1.967149,-0.9997 1.967149,-0.9997 z"
         id="path1417"
         style="fill:#ffff00;fill-opacity:1;stroke:none;stroke-width:0.15633774;stroke-miterlimit:4;stroke-dasharray:none;stroke-opacity:1" />
      <path
         inkscape:connector-curvature="0"
         d="m 81.38691,179.26744 c 0.899807,0.0122 1.799755,0.01 2.699627,0.009 0.931711,-4.7e-4 1.863423,-0.001 2.795128,-0.001 0.895459,-1.6e-4 1.790918,-1.6e-4 2.686377,-1.6e-4 0.806625,0.0307 1.579638,-0.22992 2.335242,-0.47833 1.14624,-0.62203 -0.810146,0.48572 -1.239929,0.6792 -0.104636,0.0471 0.164818,-0.16097 0.232238,-0.25364 0.209436,-0.2879 0.242239,-0.54134 0.255218,-0.88351 -0.137811,-0.61163 -0.568067,-1.07404 -0.80714,-1.64802 -0.35655,-0.96087 0.121442,-1.84777 0.639007,-2.64708 0.5481,-0.68123 1.024338,-1.44062 1.63392,-2.07002 0.541619,-0.5069 1.007478,-1.08602 1.461304,-1.6706 0.544218,-0.61152 1.029175,-1.27334 1.533301,-1.91792 0.460643,-0.62264 0.948701,-1.22967 1.256364,-1.94431 0.03657,-0.12129 0.07319,-0.24257 0.109786,-0.36386 0,0 1.974964,-0.93735 1.974964,-0.93735 v 0 c -0.0329,0.1283 -0.06579,0.2566 -0.09868,0.38491 -0.277747,0.7469 -0.761842,1.36224 -1.23232,1.99866 -0.490226,0.65445 -0.995876,1.30755 -1.534389,1.9191 -0.452213,0.59189 -0.908986,1.18077 -1.444521,1.70071 -0.662458,0.57258 -1.090912,1.38543 -1.672754,2.0356 -0.508126,0.70946 -1.023469,1.55185 -0.71296,2.44378 0.247816,0.60084 0.708653,1.07886 0.850983,1.72353 0.03491,1.62438 -1.494456,2.21192 -2.930175,2.78664 -0.768393,0.24952 -1.557031,0.46062 -2.373545,0.42085 -0.895252,-2e-5 -1.790504,-3e-5 -2.68575,-1.6e-4 -0.930589,-3.2e-4 -1.861178,-5.9e-4 -2.791768,-0.001 -0.908549,-1.6e-4 -1.817169,-0.003 -2.725659,0.009 0,0 1.786132,-1.29431 1.786132,-1.29431 z"
         id="path1419"
         style="fill:#ffff00;fill-opacity:1;stroke:none;stroke-width:0.15633774;stroke-miterlimit:4;stroke-dasharray:none;stroke-opacity:1" />
      <path
         inkscape:connector-curvature="0"
         d="m 65.310713,174.36811 c 0.966033,0.0117 1.932196,0.0121 2.898294,0.012 1.026163,-3.1e-4 2.052325,-0.004 3.078482,-0.001 1.155385,0.0642 2.294146,-0.0704 3.438176,-0.20822 1.092803,-0.12873 2.184797,-0.15749 3.265743,-0.36639 0.876012,-0.18883 1.768712,-0.25862 2.66198,-0.29727 0.898111,0.0385 1.769355,-0.17815 2.65199,-0.30617 0.951311,-0.31484 1.947265,-0.40231 2.925933,-0.58412 1.069818,-0.26344 2.179657,-0.28092 3.256439,-0.48808 0.464311,-0.1048 0.933106,-0.18472 1.403035,-0.25902 0,0 -1.741409,1.30544 -1.741409,1.30544 v 0 c -0.467554,0.0786 -0.933614,0.16408 -1.39825,0.25859 -1.080622,0.17084 -2.178522,0.23438 -3.247791,0.48294 -0.98669,0.1725 -1.975554,0.3177 -2.942402,0.5883 -0.885435,0.1361 -1.764613,0.31929 -2.666156,0.28941 -0.886669,0.0467 -1.770189,0.13322 -2.640199,0.31744 -1.079606,0.18818 -2.173738,0.20605 -3.260214,0.34522 -1.152466,0.13652 -2.301069,0.25207 -3.463937,0.19517 -1.024805,0.003 -2.049603,-0.001 -3.074407,-0.001 -0.977145,-1.2e-4 -1.954354,4.7e-4 -2.931439,0.012 0,0 1.786132,-1.29431 1.786132,-1.29431 z"
         id="path1421"
         style="fill:#ffff00;fill-opacity:1;stroke:none;stroke-width:0.15633774;stroke-miterlimit:4;stroke-dasharray:none;stroke-opacity:1" />
      <path
         inkscape:connector-curvature="0"
         d="m 32.493698,172.58303 c 0.45108,-0.78143 1.023968,-1.49174 1.62765,-2.1611 0.525911,-0.47082 1.105058,-0.8756 1.637604,-1.33836 0.478335,-0.41055 0.935923,-0.84599 1.37839,-1.29476 0.542982,-0.50637 1.135578,-0.95774 1.71287,-1.42545 0.987228,-0.57868 1.861522,-1.62005 3.038753,-1.69474 0,0 -1.761706,1.3274 -1.761706,1.3274 v 0 c -1.141673,0.39804 2.481057,-1.53605 1.103853,-0.64607 -0.113947,0.0736 -0.235018,0.13568 -0.352528,0.20351 -0.586857,0.44517 -1.136322,0.93529 -1.715563,1.38981 -0.41776,0.47384 -0.89979,0.89402 -1.373179,1.31004 -0.504138,0.49663 -1.102862,0.88579 -1.653614,1.32873 -0.619367,0.63067 -1.17303,1.34219 -1.633735,2.09452 0,0 -2.008795,0.90647 -2.008795,0.90647 z"
         id="path1423"
         style="fill:#ffff00;fill-opacity:1;stroke:none;stroke-width:0.15633774;stroke-miterlimit:4;stroke-dasharray:none;stroke-opacity:1" />
      <path
         inkscape:connector-curvature="0"
         d="m 26.495706,164.60225 c -0.892833,0.18764 -1.802875,0.26323 -2.712018,0.31664 -0.910401,0.0867 -1.83778,-0.0392 -2.739352,0.11572 -0.770235,0.19206 -1.556201,0.28237 -2.346619,0.33403 -0.99157,-0.0144 -1.961635,0.1927 -2.940249,0.32276 -0.841802,0.0964 -1.64287,0.37437 -2.483024,0.49748 -0.820065,0.0771 -1.62696,0.0784 -2.431479,0.26156 -0.697201,0.1173 -1.3244562,0.47455 -1.9351192,0.81391 0,0 1.6959112,-1.36203 1.6959112,-1.36203 v 0 c 0.630498,-0.33049 1.268863,-0.66575 1.982578,-0.77191 0.805887,-0.15964 1.623565,-0.13455 2.435923,-0.25045 0.831033,-0.14131 1.634291,-0.41242 2.476389,-0.48642 0.982872,-0.13536 1.960739,-0.31609 2.956578,-0.31804 0.788231,-0.0631 1.56593,-0.18281 2.339698,-0.346 0.909717,-0.0924 1.828689,-0.022 2.740711,-0.097 0.911193,-0.0607 1.825531,-0.14245 2.713267,-0.36736 0,0 -1.753195,1.33709 -1.753195,1.33709 z"
         id="path1425"
         style="fill:#ffff00;fill-opacity:1;stroke:none;stroke-width:0.15633774;stroke-miterlimit:4;stroke-dasharray:none;stroke-opacity:1" />
      <path
         inkscape:connector-curvature="0"
         d="m 27.598467,182.75035 c -0.457594,0.66441 -0.81055,1.38039 -1.156842,2.10678 -0.399839,0.86603 -0.774975,1.74455 -1.202952,2.59736 -0.390516,0.68602 -0.71987,1.40112 -1.077995,2.10384 -0.279586,0.68022 -0.465649,1.39685 -0.677598,2.10181 -0.285568,0.7559 -0.567709,1.51958 -0.584402,2.3344 0.03293,0.65834 0.365357,1.2498 0.675115,1.81698 0.423698,0.61318 0.926808,1.1206 1.120474,1.86069 0.106723,0.55152 -0.124999,0.87059 -0.514172,1.22854 0,0 -2.028933,0.81352 -2.028933,0.81352 v 0 c 0.386078,-0.27096 0.685345,-0.48854 0.610008,-1.00414 -0.143166,-0.734 -0.701402,-1.2006 -1.090417,-1.80892 -0.327693,-0.59868 -0.671853,-1.22436 -0.722387,-1.91666 -0.0082,-0.82996 0.243906,-1.62418 0.555944,-2.38795 0.201835,-0.71929 0.425974,-1.43205 0.661972,-2.13905 0.35424,-0.70733 0.691334,-1.41909 1.079684,-2.10923 0.464516,-0.83092 0.810934,-1.72704 1.211292,-2.58979 0.338927,-0.73022 0.68433,-1.4479 1.1163,-2.12453 0,0 2.024909,-0.88365 2.024909,-0.88365 z"
         id="path1427"
         style="fill:#ffff00;fill-opacity:1;stroke:none;stroke-width:0.15633774;stroke-miterlimit:4;stroke-dasharray:none;stroke-opacity:1" />
      <path
         inkscape:connector-curvature="0"
         d="m 19.638319,174.28313 c -0.06878,0.76263 -0.387369,1.43017 -0.79934,2.06193 -0.491153,0.66142 -1.073484,1.24347 -1.63914,1.83948 -0.480907,0.46923 -0.941611,0.95811 -1.448003,1.40045 -0.492372,0.50666 -1.037577,0.96882 -1.456239,1.54016 -0.454713,0.51578 -0.667527,1.15983 -0.937834,1.77754 -0.282949,0.68793 -0.328122,1.43311 -0.51944,2.14666 -0.150622,0.72594 -0.317811,1.44041 -0.518287,2.15449 -0.114637,0.72974 -0.36198,1.42551 -0.529138,2.14291 -0.190632,0.63134 -0.612158,1.1687 -0.982718,1.70804 0,0 -2.0110074,0.87762 -2.0110074,0.87762 v 0 c 0.3500031,-0.5385 0.774218,-1.04525 1.0222676,-1.63697 0.1521381,-0.72571 0.4271468,-1.41452 0.5233058,-2.15207 0.191241,-0.71736 0.398785,-1.42007 0.518137,-2.15466 0.202858,-0.72088 0.260404,-1.46328 0.504134,-2.1731 0.266384,-0.62547 0.464569,-1.29475 0.921494,-1.81464 0.382131,-0.61539 0.956341,-1.05696 1.434991,-1.59425 0.51178,-0.43617 0.970203,-0.91746 1.458501,-1.37755 0.545019,-0.61092 1.156911,-1.1602 1.660133,-1.81019 0.399474,-0.6008 0.748595,-1.20338 0.831037,-1.93616 0,0 1.967146,-0.99969 1.967146,-0.99969 z"
         id="path1429"
         style="fill:#ffff00;fill-opacity:1;stroke:none;stroke-width:0.15633774;stroke-miterlimit:4;stroke-dasharray:none;stroke-opacity:1" />
      <path
         inkscape:connector-curvature="0"
         d="m 59.82882,189.42651 c -0.01842,0.90412 -0.01466,1.80856 -0.01433,2.71284 -0.03179,0.91187 0.04761,1.82727 0.311222,2.70283 0.226678,0.80094 0.655759,1.47474 1.196172,2.09634 0.538479,0.69061 1.188893,1.28224 1.768467,1.93733 0.541241,0.45542 0.865172,1.0911 1.312966,1.62616 0.382679,0.56503 0.758942,1.1402 1.091527,1.73783 0.467613,0.6372 0.8216,1.34899 1.097977,2.0868 0.378508,0.66305 0.515321,1.41755 0.88596,2.08046 0.366091,0.65157 0.676447,1.33442 1.050696,1.98088 0.215326,0.39728 0.09692,0.21171 0.351518,0.55904 0,0 -1.889114,1.11323 -1.889114,1.11323 v 0 c -0.264965,-0.37213 -0.144681,-0.17882 -0.361017,-0.57984 -0.370214,-0.64964 -0.681149,-1.33248 -1.04874,-1.98416 -0.380812,-0.67216 -0.519816,-1.43551 -0.898224,-2.11265 -0.26953,-0.72895 -0.629555,-1.42396 -1.085572,-2.05521 -0.329537,-0.58415 -0.703325,-1.14594 -1.077509,-1.70079 -0.438153,-0.53921 -0.770868,-1.16259 -1.301052,-1.6245 -0.57926,-0.65569 -1.224165,-1.2521 -1.764418,-1.94141 -0.562556,-0.64244 -1.007168,-1.34602 -1.245745,-2.17432 -0.270219,-0.89411 -0.369343,-1.83045 -0.333589,-2.76291 3.12e-4,-0.89941 0.0042,-1.79899 -0.01433,-2.69826 0,0 1.967146,-0.99969 1.967146,-0.99969 z"
         id="path1431"
         style="fill:#ffff00;fill-opacity:1;stroke:none;stroke-width:0.15633774;stroke-miterlimit:4;stroke-dasharray:none;stroke-opacity:1" />
      <path
         inkscape:connector-curvature="0"
         d="m 51.056566,195.77979 c -0.09311,0.0457 -0.184649,0.0948 -0.279325,0.13724 -0.228238,0.10228 -2.095068,1.10576 -1.160246,0.53493 0.486015,-0.29677 1.976499,-1.13236 1.4866,-0.84202 -0.740543,0.43889 -1.492418,0.85848 -2.238627,1.28772 2.91035,-2.21062 0.988974,-0.18137 0.337863,0.39358 -1.2335,1.02481 -2.564083,1.69276 -4.111506,1.89599 -0.756092,0.11305 -1.555212,0.22654 -2.277553,0.48816 -0.711647,0.29133 -1.472687,0.37858 -2.232651,0.43528 -0.779015,0.26306 -1.606918,0.28465 -2.39724,0.48285 -0.973933,0.32175 -1.932849,0.6839 -2.910922,0.99343 -0.870926,0.29072 -3.588293,1.82659 -0.168299,-0.0826 -0.465686,0.44801 -0.950458,0.85853 -1.336058,1.37942 -0.39531,0.65244 -0.636197,1.39409 -0.881743,2.1147 -0.127469,0.60921 -0.304216,1.20296 -0.475134,1.80122 0,0 -1.97748,0.93874 -1.97748,0.93874 v 0 c 0.162914,-0.60444 0.376795,-1.18994 0.472202,-1.81095 0.233644,-0.74049 0.509467,-1.47974 0.852021,-2.17437 0.38314,-0.55148 0.850866,-0.95979 1.304238,-1.44824 1.294414,-0.76504 2.513143,-1.55155 3.929612,-2.04805 0.977108,-0.324 1.943294,-0.67889 2.927735,-0.98101 0.804471,-0.16047 1.618444,-0.27051 2.417412,-0.46063 0.755243,-0.0715 1.499144,-0.19659 2.208134,-0.47835 0.748806,-0.20792 1.520443,-0.36657 2.292416,-0.45477 0.414526,-0.0679 0.81836,-0.13975 1.210306,-0.29775 0.122249,-0.0493 0.470002,-0.23722 0.357978,-0.16785 -2.346035,1.45264 -1.877493,1.13652 -1.239855,0.68987 1.22814,-0.88057 1.482993,-2.32884 3.395197,-2.5779 -3.908619,2.25725 1.014954,-0.7359 2.24812,-1.08571 0,0 -1.753195,1.33709 -1.753195,1.33709 z"
         id="path1433"
         style="fill:#ffff00;fill-opacity:1;stroke:none;stroke-width:0.15633774;stroke-miterlimit:4;stroke-dasharray:none;stroke-opacity:1" />
      <path
         inkscape:connector-curvature="0"
         d="m 69.729909,204.01381 c 0.503736,0.43151 1.042036,0.78168 1.464535,1.30925 0.454735,0.62224 0.877329,1.12257 1.618579,1.38147 0.745325,0.11166 1.461262,0.3451 2.202506,0.48028 0.708966,0.26495 1.37341,0.64433 2.038408,1.00537 0.562632,0.23513 1.069085,0.58065 1.607149,0.86489 0,0 -1.830396,1.19384 -1.830396,1.19384 v 0 c -0.536155,-0.2896 -1.053035,-0.61705 -1.610539,-0.86536 -0.64401,-0.35562 -1.296367,-0.72655 -1.998889,-0.94957 -0.746832,-0.14892 -1.480526,-0.35808 -2.225751,-0.51084 -0.749236,-0.30746 -1.207811,-0.83558 -1.675838,-1.48123 -0.434668,-0.52968 -1.016038,-0.84051 -1.496736,-1.3136 0,0 1.906972,-1.1145 1.906972,-1.1145 z"
         id="path1435"
         style="fill:#ffff00;fill-opacity:1;stroke:none;stroke-width:0.15633774;stroke-miterlimit:4;stroke-dasharray:none;stroke-opacity:1" />
    </g>
    <g
       id="g1918"
       transform="translate(2.3729751e-7,-1.889881)"
       style="filter:url(#filter2002)"
       inkscape:export-filename="C:\Users\Peter Auto\Documents\git\2020_01_03\from_nothing\Assets\Ability\SVG_Pictures\lightning.png"
       inkscape:export-xdpi="25.4"
       inkscape:export-ydpi="25.4">
      <path
         sodipodi:open="true"
         d="m 76.899617,293.86206 a 41.17495,45.883408 0 0 1 -14.979023,-51.07957 41.17495,45.883408 0 0 1 38.811036,-31.89437 41.17495,45.883408 0 0 1 39.36548,31.03912 41.17495,45.883408 0 0 1 -14.07621,51.39743"
         sodipodi:end="0.92181669"
         sodipodi:start="2.2001418"
         sodipodi:ry="45.883408"
         sodipodi:rx="41.17495"
         sodipodi:cy="256.76932"
         sodipodi:cx="101.13584"
         sodipodi:type="arc"
         id="path1466"
         style="fill:none;fill-opacity:1;stroke:#ffff00;stroke-width:10;stroke-miterlimit:4;stroke-dasharray:none;stroke-opacity:1" />
      <path
         inkscape:connector-curvature="0"
         d="m 79.158591,216.65531 c -0.856189,-0.0194 -1.712759,-0.0139 -2.569112,-0.0125 -1.026488,0.0211 -2.043369,-5.3e-4 -3.062573,-0.12201 -1.115372,-0.11849 -2.231065,-0.17941 -3.318365,-0.47023 -0.970367,-0.30013 -1.985655,-0.36492 -2.953393,-0.66743 -1.131898,-0.31946 -2.274469,-0.60703 -3.418451,-0.88173 -1.400564,-0.35362 -2.729396,-0.93514 -4.062306,-1.48261 -1.297562,-0.44623 -2.531211,-1.04529 -3.755552,-1.65906 -1.252836,-0.55291 -2.509094,-1.10325 -3.716782,-1.75004 -0.732811,-0.44732 -1.606359,-0.69403 -2.297956,-1.21175 -0.239085,-0.17897 -0.458166,-0.38322 -0.68725,-0.57483 -1.47002,-1.09506 -2.771502,-2.35388 -4.016753,-3.6912 -0.538306,-0.63752 -1.020117,-1.3294 -1.424012,-2.06038 -0.336602,-0.67412 -0.532796,-1.40277 -0.852339,-2.08297 -0.425878,-1.16507 -0.813012,-2.34405 -1.234019,-3.51073 -0.297916,-0.81929 -0.609092,-1.63368 -0.96978,-2.42718 -0.15453,-0.48018 -0.432189,-0.89464 -0.707723,-1.31011 0,0 1.583338,-0.92703 1.583338,-0.92703 v 0 c 0.280275,0.42477 0.555805,0.85316 0.709321,1.34408 0.350827,0.80477 0.651539,1.63043 0.942488,2.45859 0.404548,1.1638 0.747353,2.35271 1.249921,3.48018 0.326673,0.67323 0.525132,1.39609 0.857361,2.0681 0.393684,0.71844 0.849839,1.40892 1.350174,2.05642 1.188667,1.37278 2.458056,2.6474 3.958537,3.6885 0.961065,0.66124 1.970257,1.22095 3.019647,1.7317 1.203484,0.64257 2.440581,1.21982 3.694772,1.7567 1.233582,0.58584 2.451166,1.20596 3.745695,1.65122 1.330944,0.53303 2.648032,1.12332 4.045942,1.46128 1.159209,0.26784 2.323815,0.52153 3.463788,0.86381 0.969679,0.28202 1.983369,0.35863 2.949905,0.66161 1.0823,0.27527 2.189414,0.34324 3.297447,0.45434 1.020818,0.11478 2.040816,0.11119 3.067217,0.0932 0.867791,0.001 1.735772,0.007 2.60341,-0.0125 0,0 -1.492597,1.08443 -1.492597,1.08443 z"
         id="path1698"
         style="fill:#ffff00;fill-opacity:1;stroke:none;stroke-width:10;stroke-miterlimit:4;stroke-dasharray:none;stroke-opacity:1" />
      <path
         inkscape:connector-curvature="0"
         d="m 101.33381,212.55201 c 0.51805,-0.58211 1.07091,-1.1311 1.60947,-1.69417 0.42799,-0.50578 0.88329,-0.97208 1.40525,-1.37857 0.35999,-0.40759 0.80348,-0.72117 1.21702,-1.06947 0.55053,-0.54486 1.1734,-1.00884 1.79092,-1.4737 0.95555,-0.68412 1.88427,-1.40575 2.80002,-2.14226 1.21901,-1.03648 2.4869,-2.01647 3.64985,-3.11695 0.56123,-0.58212 1.08158,-1.18232 1.54065,-1.84651 0.40382,-0.5322 0.52765,-1.16036 0.59889,-1.80797 0.0916,-0.94317 -0.45035,-1.76333 -1.05833,-2.42879 -0.67083,-0.61668 -1.47478,-1.01721 -2.32882,-1.31083 -0.69742,-0.32436 -1.43877,-0.52458 -2.17018,-0.75366 -0.4591,-0.17512 -0.94204,-0.48008 -0.53426,-0.96777 1.26575,-0.9152 2.33293,-1.27153 3.79828,-1.44243 0.95374,-0.17409 1.89978,-0.37554 2.83045,-0.64796 1.23105,-0.33054 2.49626,-0.50079 3.74473,-0.75017 1.7543,-0.3201 3.49858,-0.68246 5.22539,-1.12798 2.25091,-0.60054 4.54869,-0.99821 6.83601,-1.43151 2.59217,-0.53035 5.17889,-1.07308 7.80178,-1.42902 2.55601,-0.29579 5.07931,-0.80944 7.60728,-1.27874 2.29362,-0.3594 4.55245,-0.90385 6.81766,-1.40566 2.05745,-0.43873 4.0834,-1.0131 6.14268,-1.44125 1.74286,-0.33675 3.46307,-0.7726 5.19242,-1.16932 0,0 -1.38721,1.05561 -1.38721,1.05561 v 0 c -1.72369,0.38108 -3.43852,0.80173 -5.16984,1.1485 -2.04251,0.42333 -4.05734,0.97016 -6.09676,1.40881 -2.26747,0.4934 -4.5225,1.05961 -6.81975,1.39996 -2.52611,0.45606 -5.04648,0.95751 -7.59704,1.26146 -2.6223,0.35349 -5.204,0.90784 -7.79574,1.43477 -2.30393,0.42469 -4.60366,0.87781 -6.87068,1.47209 -1.7431,0.45102 -3.50367,0.81988 -5.27309,1.15232 -1.25912,0.25177 -2.53317,0.44238 -3.77108,0.78881 -0.93917,0.26689 -1.89193,0.4752 -2.85578,0.63227 -0.44976,0.0609 -0.8905,0.12713 -1.32714,0.25504 -0.67951,0.19906 -1.98071,0.89617 0.68628,-0.57742 -0.51922,0.25986 -0.0378,0.50277 0.3163,0.63758 0.72907,0.23067 1.46652,0.43606 2.15791,0.76997 0.87224,0.32023 1.70462,0.72866 2.37777,1.38504 0.6182,0.69225 1.1983,1.58863 1.15103,2.54981 -0.0592,0.66817 -0.15503,1.33325 -0.55707,1.89306 -0.48884,0.66527 -0.97481,1.3147 -1.56945,1.89649 -1.17668,1.11444 -2.47911,2.08183 -3.69772,3.14888 -0.87699,0.75072 -1.79444,1.45119 -2.7323,2.12356 -0.60165,0.45709 -1.22116,0.90411 -1.75323,1.44204 -0.39375,0.3762 -0.88718,0.63796 -1.21704,1.08072 -0.51406,0.42247 -1.03157,0.82644 -1.43683,1.36754 -0.54004,0.54011 -1.0811,1.09262 -1.5679,1.67914 0,0 -1.7108,0.70864 -1.7108,0.70864 z"
         id="path1700"
         style="fill:#ffff00;fill-opacity:1;stroke:none;stroke-width:10;stroke-miterlimit:4;stroke-dasharray:none;stroke-opacity:1" />
      <path
         inkscape:connector-curvature="0"
         d="m 141.20152,239.0054 c 0.87006,0.0203 1.74047,0.0116 2.61069,0.0151 0.94997,-8e-4 1.8999,-0.003 2.84986,0.002 1.04363,0.004 2.08725,7.9e-4 3.13088,-0.003 1.00782,0.006 2.01564,0.003 3.02346,-2.2e-4 0.74353,-0.14685 1.53076,-0.12035 2.25819,-0.34429 -1.56107,1.18549 -2.71144,1.78059 -0.079,0.25928 0.0629,-0.0364 0.14547,0.007 0.2173,0.0185 0,0 -1.52505,1.05252 -1.52505,1.05252 v 0 c -0.12659,-0.0404 -0.44776,-0.10686 -0.34794,-0.19459 0.11457,-0.10069 3.96082,-2.78899 0.25629,-0.01 -0.74211,0.10817 -1.48788,0.20316 -2.23405,0.27466 -1.00761,-0.003 -2.01522,-0.006 -3.02283,-2.3e-4 -1.04099,-0.004 -2.08198,-0.007 -3.12297,-0.003 -0.95174,0.005 -1.90345,0.003 -2.8552,0.002 -0.88408,0.003 -1.76833,-0.005 -2.65226,0.0151 0,0 1.49259,-1.08443 1.49259,-1.08443 z"
         id="path1702"
         style="fill:#ffff00;fill-opacity:1;stroke:none;stroke-width:10;stroke-miterlimit:4;stroke-dasharray:none;stroke-opacity:1" />
      <path
         inkscape:connector-curvature="0"
         d="m 149.48809,257.58765 c 0.79515,0.20274 1.61738,0.25085 2.43352,0.29269 1.01113,0.0414 2.02345,0.0429 3.03528,0.0422 1.46988,0.0145 2.93985,0.0131 4.40975,0.0238 1.8832,0.0704 3.75567,-0.043 5.63189,-0.181 1.68269,-0.0603 3.34715,-0.30901 5.01408,-0.52753 1.9513,-0.36435 3.92616,-0.56178 5.89235,-0.82448 1.64396,-0.27028 3.26465,-0.64444 4.91161,-0.89871 1.27149,-0.18667 2.55519,-0.33041 3.81816,-0.56907 0.9011,-0.20469 1.81368,-0.33478 2.73476,-0.39882 0.28801,-0.0271 0.58174,-0.01 0.86894,-0.0499 0.015,-0.002 0.0551,-0.0244 0.0427,-0.0157 -1.61801,1.14046 -0.9484,1.12614 -1.75654,1.10454 -0.70773,-0.0568 -1.39401,0.0582 -2.08117,0.21683 -1.13757,0.18766 -2.22311,0.55651 -3.32383,0.88593 -0.86869,0.22431 -1.75211,0.40261 -2.60558,0.68186 -0.84774,0.54418 0.14273,-0.10145 1.10689,-0.57371 0.0459,-0.0225 -0.0492,0.1273 -0.005,0.15336 0.0949,0.0562 0.27464,0.0876 0.3689,0.10997 0.77647,0.11607 1.5662,0.1069 2.34949,0.11184 0.51995,9e-5 1.03988,7.9e-4 1.55982,-8e-4 0,0 -1.44397,1.04956 -1.44397,1.04956 v 0 c -0.52123,8e-4 -1.04246,0.004 -1.5637,0.002 -0.8064,-0.003 -1.62293,0.0281 -2.41903,-0.12229 -1.5551,-0.49233 0.58265,-1.53318 1.47706,-1.83674 0.85321,-0.25274 1.72306,-0.44216 2.58456,-0.66307 1.1049,-0.33077 2.20271,-0.67546 3.33991,-0.88268 0.71346,-0.15694 1.42477,-0.25573 2.15737,-0.22278 0.78103,-0.0165 0.26947,-0.0414 -1.2569,1.10812 -0.0488,0.0368 -0.12206,-0.01 -0.18319,-0.009 -0.0951,0.001 -0.19023,0.003 -0.28527,0.007 -0.12942,0.005 -0.25868,0.0136 -0.38802,0.0204 -0.90756,0.0693 -1.80585,0.20495 -2.69655,0.39368 -1.25891,0.213 -2.52887,0.36913 -3.79339,0.54471 -1.63611,0.24578 -3.24438,0.63089 -4.88143,0.87171 -1.96562,0.25386 -3.93766,0.46003 -5.88771,0.82193 -1.67346,0.23497 -3.34495,0.48383 -5.03739,0.53176 -1.87473,0.13819 -3.74792,0.20178 -5.62841,0.16296 -1.49353,0.0117 -2.98712,0.0131 -4.48064,0.0272 -1.01462,-0.005 -2.02954,-0.005 -3.04348,-0.0479 -0.83847,-0.0483 -1.6784,-0.10699 -2.50086,-0.2878 0,0 1.5252,-1.05202 1.5252,-1.05202 z"
         id="path1704"
         style="fill:#ffff00;fill-opacity:1;stroke:none;stroke-width:10;stroke-miterlimit:4;stroke-dasharray:none;stroke-opacity:1" />
      <path
         inkscape:connector-curvature="0"
         d="m 124.69781,226.53784 c 0.27215,-0.85519 0.82641,-1.55499 1.38768,-2.23651 0.50046,-0.46544 0.98577,-0.96367 1.51714,-1.396 1.05501,-0.76182 2.2176,-1.39275 3.46197,-1.77702 0.80589,-0.36299 1.63491,-0.66568 2.46807,-0.9629 0.92562,-0.24995 1.81286,-0.61966 2.73835,-0.8662 0.94084,-0.36863 1.91365,-0.64279 2.85299,-1.01372 1.17399,-0.35666 2.26091,-0.92976 3.40078,-1.37377 1.26229,-0.51002 2.51307,-1.04415 3.71651,-1.6818 -0.27452,0.1474 -0.52554,0.35122 -0.82354,0.4422 -0.24161,0.0737 0.43492,-0.25714 0.65022,-0.38929 0.22291,-0.13682 0.43889,-0.28493 0.66432,-0.41757 7.30192,-4.29622 -0.87218,0.56481 1.85624,-1.10708 0.97862,-0.66643 2.03294,-1.20595 3.0554,-1.79988 0.35492,-0.20616 -0.70627,0.42076 -1.07706,0.59676 -0.1708,0.0811 0.3179,-0.20479 0.47449,-0.31074 0.15921,-0.10771 0.31521,-0.2201 0.47282,-0.33015 0.89316,-0.58127 1.72061,-1.25882 2.49645,-1.98797 0.10861,-0.11051 0.21723,-0.22101 0.32584,-0.33152 0,0 1.6592,-0.68999 1.6592,-0.68999 v 0 c -0.1087,0.11299 -0.21739,0.22597 -0.32608,0.33895 -0.77072,0.74548 -1.6056,1.43324 -2.50383,2.01924 -0.78575,0.56066 -4.74733,2.8966 -1.86919,1.18893 0.36313,-0.21545 -1.51536,0.90227 -1.0727,0.67371 -1.22656,0.75171 -0.56594,0.35217 -2.68115,1.58678 -0.26938,0.15724 0.51355,-0.36699 0.80609,-0.47522 0.24418,-0.0903 -0.4364,0.28418 -0.65821,0.42051 -0.92412,0.56798 -1.90119,1.04806 -2.80037,1.65752 -1.22,0.63583 -2.48405,1.17642 -3.75916,1.69213 -1.13279,0.45996 -2.23391,0.99847 -3.40086,1.37185 -0.95076,0.36173 -1.92,0.67373 -2.87923,1.01218 -0.91923,0.26912 -1.81616,0.61001 -2.73546,0.88053 -0.83683,0.304 -1.66436,0.62589 -2.48499,0.96897 -0.35393,0.12106 -0.69385,0.25741 -1.03427,0.41267 -0.10221,0.0466 -0.40075,0.20185 -0.30543,0.14242 2.15999,-1.34671 1.50776,-0.90721 1.01379,-0.56737 -0.56838,0.39157 -1.01144,0.95274 -1.56332,1.36859 -0.54464,0.65591 -1.12205,1.30386 -1.37251,2.14028 0,0 -1.67099,0.80048 -1.67099,0.80048 z"
         id="path1706"
         style="fill:#ffff00;fill-opacity:1;stroke:none;stroke-width:10;stroke-miterlimit:4;stroke-dasharray:none;stroke-opacity:1" />
      <path
         inkscape:connector-curvature="0"
         d="m 96.970754,210.79158 c -0.687269,-0.72957 -1.333088,-1.49589 -2.039007,-2.20817 -0.674079,-0.66794 -1.305525,-1.37519 -1.961448,-2.06065 -0.5724,-0.59148 -0.992765,-1.30576 -1.49456,-1.95327 -0.42567,-0.56575 -0.774092,-1.18501 -1.231101,-1.72659 -0.440812,-0.63356 -0.812626,-1.29701 -1.194245,-1.96609 -0.545975,-1.13617 -1.028213,-2.30041 -1.566878,-3.44195 -0.562885,-1.29182 -1.2831,-2.50605 -1.908858,-3.7677 -0.498467,-0.88277 -0.891873,-1.81732 -1.342818,-2.72283 -0.472734,-0.6589 -0.895107,-1.34466 -1.205987,-2.09402 -0.283768,-0.56228 -0.143502,-0.2811 -0.42083,-0.84352 0,0 1.562187,-0.88784 1.562187,-0.88784 v 0 c 0.275032,0.56461 0.13349,0.28115 0.424929,0.85024 0.336899,0.73223 0.748374,1.42066 1.198144,2.08945 0.439838,0.91214 0.84876,1.83884 1.33735,2.72738 0.596368,1.27815 1.283147,2.51273 1.834364,3.81122 0.538213,1.13298 1.132525,2.23762 1.659599,3.37481 0.368729,0.66492 0.744135,1.31288 1.190069,1.93109 0.445908,0.55253 0.799632,1.16987 1.221277,1.74067 0.487059,0.65046 0.918396,1.34836 1.48114,1.93894 0.644943,0.69158 1.271829,1.3998 1.935909,2.07297 0.696119,0.72636 1.352997,1.49226 2.099646,2.16832 0,0 -1.578882,0.96754 -1.578882,0.96754 z"
         id="path1708"
         style="fill:#ffff00;fill-opacity:1;stroke:none;stroke-width:10;stroke-miterlimit:4;stroke-dasharray:none;stroke-opacity:1" />
      <path
         inkscape:connector-curvature="0"
         d="m 62.149664,237.444 c -0.856189,-0.0194 -1.712759,-0.0139 -2.569112,-0.0125 -0.818489,7.9e-4 -1.636983,0.005 -2.455461,5.3e-4 -0.853246,0.10983 -1.701688,0.24437 -2.559341,0.31732 -1.102772,0.0817 -2.20918,0.0406 -3.313938,0.0431 -1.186563,0.008 -2.373108,0.0122 -3.559688,0.0138 -0.870643,0.002 -1.741286,0.005 -2.611935,0.006 -0.77739,0.037 -1.550395,-0.0782 -2.296522,-0.29221 -0.782971,-0.26982 -1.599621,-0.36646 -2.420734,-0.42457 -1.689954,-0.0782 -3.382124,-0.0897 -5.073658,-0.0871 -1.577771,0.007 -3.155458,0.0238 -4.733168,0.038 -0.841147,0.008 -1.682329,0.01 -2.523506,0.0108 -0.757391,-0.005 -1.500132,-0.19412 -2.251875,-0.28294 -0.776393,-0.21027 -1.563043,-0.34429 -2.363421,-0.41419 -0.134747,-0.026 -0.269494,-0.052 -0.404241,-0.078 0,0 1.483394,-1.03675 1.483394,-1.03675 v 0 c 0.129411,0.0229 0.258821,0.0459 0.388232,0.0688 0.80469,0.0756 1.591095,0.22435 2.377132,0.41158 0.745265,0.0955 1.484569,0.27822 2.238894,0.26486 0.832106,7.9e-4 1.664216,0.002 2.496301,0.009 1.546183,0.0115 3.092352,0.0244 4.638567,0.031 1.731081,0.004 3.463067,-0.0484 5.19312,0.0171 0.831397,0.0672 1.65514,0.17548 2.448695,0.44644 0.742968,0.1876 1.500274,0.29299 2.268301,0.25371 0.864392,0.002 1.728775,0.004 2.593158,0.008 1.173139,0.004 2.34624,0.0114 3.519382,0.0146 1.121145,-0.004 2.243264,-0.0157 3.36193,-0.097 0.858115,-0.0784 1.706899,-0.22461 2.564813,-0.30163 0.817949,-0.005 1.635908,-2.6e-4 2.453867,5.3e-4 0.867789,0.001 1.735773,0.007 2.603408,-0.0125 0,0 -1.492594,1.08444 -1.492594,1.08444 z"
         id="path1710"
         style="fill:#ffff00;fill-opacity:1;stroke:none;stroke-width:10;stroke-miterlimit:4;stroke-dasharray:none;stroke-opacity:1" />
      <path
         inkscape:connector-curvature="0"
         d="m 52.53493,256.73414 c -0.392379,0.6038 -0.803124,1.19976 -1.275987,1.7436 -0.535279,0.58171 -1.119952,1.11048 -1.70489,1.64103 -0.732666,0.63574 -0.925079,1.50205 -1.052714,2.42073 -0.113474,0.88603 -0.115864,1.76079 0.122007,2.62396 0.177893,0.7013 0.591693,1.27423 1.03564,1.82708 0.534488,0.65386 1.089978,1.2946 1.722295,1.85552 0.749988,0.63516 1.315371,1.34789 1.708573,2.24591 0.382276,1.02585 0.575773,2.11477 0.510032,3.2076 -0.113831,0.80277 -0.609666,1.44002 -1.153607,2.01052 -1.139999,0.94967 -2.539418,1.49876 -3.879204,2.09962 -1.051991,0.36701 -2.107264,0.73605 -3.187975,1.01005 -1.2616,0.23109 -2.540371,0.36425 -3.798732,0.6141 -1.234487,0.20447 -2.460969,0.46728 -3.704746,0.6065 -1.597001,0.12314 -3.193819,0.2735 -4.777811,0.51417 -1.388364,0.18275 -2.757302,0.47667 -4.141721,0.6844 -1.203952,0.17126 -2.417234,0.30421 -3.615093,0.51604 -1.081674,0.11435 -2.104003,0.39015 -3.089839,0.84082 -0.857666,0.50615 -0.693876,0.39637 0.540259,-0.24083 0,0 -1.651352,0.65569 -1.651352,0.65569 v 0 c 2.142532,-1.33013 1.294529,-0.84865 2.501123,-1.51749 0.995883,-0.44159 2.034311,-0.67273 3.116106,-0.80422 1.200097,-0.19746 2.410558,-0.33859 3.614451,-0.51076 1.375032,-0.20142 2.735422,-0.48842 4.114562,-0.66389 1.588466,-0.2278 3.186695,-0.37023 4.784294,-0.51493 1.24379,-0.17976 2.479543,-0.41495 3.717721,-0.62944 1.262782,-0.22971 2.541119,-0.37132 3.798649,-0.62921 1.081379,-0.29239 2.147928,-0.64656 3.192891,-1.04984 0.135345,-0.0585 0.270693,-0.11708 0.406038,-0.17563 0.134697,-0.0551 0.270465,-0.10776 0.404095,-0.16544 0.136854,-0.0591 0.529379,-0.2702 0.40721,-0.18479 -2.23507,1.56245 -0.956429,0.53422 -0.428352,0.23926 0.551928,-0.51911 1.054396,-1.14302 1.215916,-1.89777 0.10582,-1.07207 -0.05436,-2.13379 -0.442063,-3.14222 -0.396558,-0.86355 -0.974802,-1.54514 -1.689272,-2.17075 -0.632735,-0.57637 -1.212453,-1.20957 -1.758998,-1.86804 -0.456779,-0.57478 -0.877204,-1.17136 -1.059997,-1.89698 -0.251537,-0.88416 -0.252579,-1.7871 -0.140047,-2.69686 0.119595,-0.93652 0.261165,-1.85733 0.989796,-2.53009 0.577554,-0.53059 1.165399,-1.04793 1.700564,-1.62125 0.48654,-0.5089 0.867368,-1.10575 1.264941,-1.68371 0,0 1.685237,-0.76246 1.685237,-0.76246 z"
         id="path1712"
         style="fill:#ffff00;fill-opacity:1;stroke:none;stroke-width:10;stroke-miterlimit:4;stroke-dasharray:none;stroke-opacity:1" />
      <path
         inkscape:connector-curvature="0"
         d="m 43.809046,236.6831 c -0.718502,0.59181 -1.371346,1.24618 -2.152623,1.75651 -1.289024,0.69571 -2.525826,1.4833 -3.844772,2.12117 -0.780939,0.42789 -1.62289,0.66958 -2.462813,0.94664 -0.870778,0.2406 -1.771176,0.40251 -2.6168,0.72443 -0.85784,0.28059 -1.758418,0.37605 -2.637632,0.57197 -0.933722,0.16569 -1.876557,0.23656 -2.811343,0.39509 -1.160221,0.36943 -2.370187,0.43165 -3.565096,0.6093 -0.591622,0.0995 -1.184904,0.18727 -1.779197,0.26889 0,0 1.427831,-1.06688 1.427831,-1.06688 v 0 c 0.585584,-0.0773 1.170293,-0.16018 1.753842,-0.25179 1.208326,-0.16664 2.418782,-0.29651 3.595453,-0.63729 0.935818,-0.1546 1.882534,-0.21652 2.812491,-0.40728 0.879647,-0.19024 1.783363,-0.283 2.632096,-0.59581 0.859341,-0.27986 1.7461,-0.46615 2.614137,-0.71599 0.840787,-0.26425 1.661207,-0.55302 2.444014,-0.96525 0.556596,-0.27848 3.422761,-1.87767 0.766654,-0.3476 0.779801,-0.48109 1.419053,-1.10486 2.11296,-1.69747 0,0 1.710798,-0.70864 1.710798,-0.70864 z"
         id="path1714"
         style="fill:#ffff00;fill-opacity:1;stroke:none;stroke-width:10;stroke-miterlimit:4;stroke-dasharray:none;stroke-opacity:1" />
      <path
         inkscape:connector-curvature="0"
         d="m 54.778076,208.35183 c 0.198287,-0.94879 0.254098,-1.91591 0.422061,-2.87018 0.231997,-0.9565 0.461938,-1.91261 0.806055,-2.83586 0.350235,-0.9868 0.741453,-1.9587 1.130049,-2.93096 0.346967,-0.88634 0.734751,-1.75629 1.040029,-2.65856 0.381495,-0.87441 0.686065,-1.78242 1.080538,-2.6513 0.364034,-0.78789 0.661371,-1.61053 0.894781,-2.44646 0.288964,-0.77363 0.439293,-1.58445 0.67328,-2.37399 0.254418,-0.77595 0.47898,-1.55084 0.607874,-2.35851 0.107741,-0.8479 0.306486,-1.67773 0.411232,-2.52674 0.01418,-0.18969 0.02835,-0.37938 0.04253,-0.56906 0,0 1.588053,-0.7962 1.588053,-0.7962 v 0 c -0.01053,0.18992 -0.02106,0.37984 -0.03161,0.56976 -0.0591,0.85668 -0.279307,1.67855 -0.389596,2.52768 -0.122584,0.81278 -0.323168,1.59996 -0.588008,2.3772 -0.245107,0.78898 -0.385283,1.60207 -0.688154,2.37345 -0.209566,0.85184 -0.528379,1.68044 -0.888715,2.47909 -0.408709,0.85741 -0.684027,1.77014 -1.085035,2.63119 -0.301318,0.90833 -0.68576,1.78437 -1.041204,2.67176 -0.400791,0.96383 -0.791366,1.93456 -1.123701,2.92415 -0.362,0.91006 -0.593109,1.85931 -0.827532,2.80878 -0.177694,0.94495 -0.257186,1.89643 -0.373661,2.85016 0,0 -1.659273,0.8046 -1.659273,0.8046 z"
         id="path1716"
         style="fill:#ffff00;fill-opacity:1;stroke:none;stroke-width:10;stroke-miterlimit:4;stroke-dasharray:none;stroke-opacity:1" />
      <path
         inkscape:connector-curvature="0"
         d="m 89.514377,194.38321 c -0.06622,-0.8387 0.155049,-1.60359 0.402244,-2.39118 0.231748,-0.64301 0.535717,-1.23527 0.911254,-1.80328 0.420711,-0.64787 0.909391,-1.24152 1.395769,-1.8393 0.431679,-0.54119 0.93962,-1.02002 1.356622,-1.5717 0.50437,-0.64778 1.009502,-1.29349 1.487154,-1.96127 0.709362,-0.85009 1.387192,-1.7235 2.045833,-2.61324 0.515686,-0.75644 0.260141,-0.39199 0.765093,-1.09441 0,0 1.619046,-0.69959 1.619046,-0.69959 v 0 c -0.527002,0.702 -0.264414,0.33499 -0.784804,1.10312 -0.643655,0.87886 -1.265293,1.77734 -1.995356,2.58841 -0.470998,0.66298 -0.954756,1.31651 -1.463061,1.95116 -0.391107,0.57696 -0.923554,1.04434 -1.362868,1.58477 -0.471247,0.6023 -0.986018,1.16729 -1.39313,1.81916 -0.364918,0.568 -0.703725,1.12699 -0.944488,1.76377 -0.240879,0.76883 -0.521867,1.50158 -0.395446,2.32599 0,0 -1.643862,0.83759 -1.643862,0.83759 z"
         id="path1718"
         style="fill:#ffff00;fill-opacity:1;stroke:none;stroke-width:10;stroke-miterlimit:4;stroke-dasharray:none;stroke-opacity:1" />
      <path
         inkscape:connector-curvature="0"
         d="m 126.76914,187.47473 c 0.5059,-0.35384 1.80891,-0.52095 -0.56709,0.34412 -0.17509,0.0637 0.2839,-0.24142 0.42393,-0.36434 0.47265,-0.41489 0.36903,-0.32501 0.8022,-0.7577 0.67019,-0.57282 1.22878,-1.23893 1.77019,-1.92903 0.55152,-0.60859 1.09132,-1.22992 1.66913,-1.81405 0.77854,-0.73897 1.51459,-1.5209 2.23424,-2.31704 0.73637,-0.84268 1.50099,-1.65868 2.32198,-2.41935 0.54081,-0.51068 0.98416,-1.10624 1.49984,-1.64137 0.48859,-0.60131 1.03737,-1.1503 1.50244,-1.7705 0.64429,-0.74475 1.12792,-1.59657 1.62822,-2.43858 0.0933,-0.12857 0.18667,-0.25715 0.28001,-0.38573 0,0 1.64902,-0.7091 1.64902,-0.7091 v 0 c -0.0995,0.12446 -0.1991,0.24891 -0.29865,0.37337 -0.51254,0.82407 -0.94147,1.71015 -1.59372,2.43937 -0.44915,0.64067 -1.01818,1.17403 -1.4931,1.79453 -0.52311,0.5375 -0.97671,1.1265 -1.50543,1.65722 -0.85104,0.74238 -1.62111,1.56935 -2.36629,2.4172 -0.70681,0.79038 -1.41714,1.57856 -2.18718,2.30779 -0.58271,0.57496 -1.11316,1.1969 -1.67271,1.79438 -0.56549,0.68348 -1.08396,1.40358 -1.79136,1.95755 -1.08628,1.11648 -2.28134,2.01851 -3.75011,2.61666 0,0 1.44444,-1.1554 1.44444,-1.1554 z"
         id="path1720"
         style="fill:#ffff00;fill-opacity:1;stroke:none;stroke-width:10;stroke-miterlimit:4;stroke-dasharray:none;stroke-opacity:1" />
      <path
         inkscape:connector-curvature="0"
         d="m 148.63191,213.6383 c 0.69684,-0.70214 1.32882,-1.46474 1.99864,-2.19322 0.52348,-0.66778 1.15464,-1.23797 1.70305,-1.8835 0.50003,-0.64708 1.10057,-1.2072 1.67204,-1.79001 0.56443,-0.57126 1.10087,-1.1607 1.69591,-1.70186 0.58201,-0.60032 1.18904,-1.17897 1.83128,-1.71453 0.6031,-0.5216 1.23633,-0.99426 1.78435,-1.57573 0.51225,-0.51216 1.052,-0.99599 1.60353,-1.46517 0,0 1.64107,-0.66291 1.64107,-0.66291 v 0 c -0.54811,0.45239 -1.06401,0.93738 -1.57686,1.42932 -0.54044,0.59931 -1.16263,1.08459 -1.77894,1.60183 -0.65461,0.51526 -1.25682,1.10357 -1.83286,1.70416 -0.59437,0.5395 -1.14361,1.11008 -1.69384,1.69213 -0.58284,0.56587 -1.1673,1.14411 -1.67985,1.77396 -0.53464,0.66796 -1.19479,1.21654 -1.71329,1.89817 -0.66016,0.72138 -1.30944,1.44955 -1.95517,2.18358 0,0 -1.69906,0.70378 -1.69906,0.70378 z"
         id="path1722"
         style="fill:#ffff00;fill-opacity:1;stroke:none;stroke-width:10;stroke-miterlimit:4;stroke-dasharray:none;stroke-opacity:1" />
      <path
         inkscape:connector-curvature="0"
         d="m 152.02605,241.26477 c 1.22159,-0.83893 2.56835,-1.46859 3.85167,-2.2025 0.93967,-0.53626 1.93483,-0.95213 2.91021,-1.41542 1.12289,-0.50307 2.30975,-0.82843 3.45234,-1.27828 1.05376,-0.32793 2.05345,-0.80039 3.09415,-1.1627 0.74207,-0.17119 1.40194,-0.56046 2.113,-0.81712 0.97933,-0.33719 1.97013,-0.64648 2.96467,-0.93822 0.92056,-0.17648 1.79835,-0.51001 2.71256,-0.70937 0.81802,-0.16179 1.62172,0.19182 2.41433,0.36747 0.78714,0.16674 1.59133,0.20745 2.39312,0.23043 0.38017,0.009 0.76043,0.009 1.14067,0.0102 0,0 -1.46844,1.06595 -1.46844,1.06595 v 0 c -0.38093,-0.002 -0.7619,-0.004 -1.1427,-0.0152 -0.8068,-0.03 -1.61503,-0.084 -2.4046,-0.26433 -0.78055,-0.18048 -1.57201,-0.49504 -2.37779,-0.29431 -0.89305,0.2106 -1.76656,0.49814 -2.66516,0.68773 -1.00728,0.30163 -2.01112,0.62153 -2.99877,0.98122 -0.69619,0.27431 -1.3648,0.62291 -2.09712,0.79994 -1.02996,0.37023 -2.03338,0.81237 -3.07425,1.15401 -1.14307,0.43768 -2.32786,0.76194 -3.43913,1.28358 -0.98562,0.46009 -1.9776,0.90346 -2.92402,1.44269 -0.53019,0.29144 -2.00906,1.18517 0.29565,-0.24437 0.24931,-0.15464 -0.50295,0.30239 -0.74997,0.46068 -0.0943,0.0604 -0.19071,0.11741 -0.28606,0.17612 0,0 -1.71436,0.68177 -1.71436,0.68177 z"
         id="path1724"
         style="fill:#ffff00;fill-opacity:1;stroke:none;stroke-width:10;stroke-miterlimit:4;stroke-dasharray:none;stroke-opacity:1" />
      <path
         inkscape:connector-curvature="0"
         d="m 163.72967,262.41143 c -0.0426,0.86607 -0.0389,1.72608 0.0825,2.58481 0.16219,0.79674 0.63362,1.46788 1.13059,2.09301 0.58173,0.63815 1.25098,1.17049 1.94669,1.6768 0.92107,0.72758 1.92019,1.33276 2.97063,1.85208 0.99037,0.498 1.98566,0.986 2.98069,1.47534 1.25851,0.55095 2.53525,1.06067 3.80765,1.57899 0.78218,0.32676 1.6234,0.51562 2.35838,0.94308 0.58577,0.32697 1.18229,0.62727 1.7813,0.9289 0.91695,0.592 1.5959,1.43412 2.1655,2.34957 0.52641,0.91313 0.68238,1.95459 0.77014,2.98797 0.007,0.14444 0.0149,0.28887 0.0223,0.43328 0,0 -1.60373,0.82611 -1.60373,0.82611 v 0 c -0.005,-0.14338 -0.0106,-0.28675 -0.0159,-0.43013 -0.0685,-1.01095 -0.2002,-2.02735 -0.70605,-2.92582 -0.55455,-0.90164 -1.22217,-1.70415 -2.15464,-2.238 -0.60657,-0.29171 -1.19253,-0.61698 -1.78234,-0.94073 -0.73313,-0.40283 -1.55377,-0.60748 -2.3184,-0.94398 -1.25422,-0.54094 -2.51456,-1.06741 -3.76504,-1.61681 -1.01982,-0.46461 -2.05169,-0.90372 -3.03403,-1.44608 -1.04642,-0.54621 -2.03517,-1.18015 -2.99133,-1.87212 -0.71182,-0.5131 -1.40055,-1.04814 -1.98006,-1.71288 -0.52488,-0.64905 -1.00452,-1.34541 -1.176,-2.17808 -0.12289,-0.86106 -0.12398,-1.71895 -0.13275,-2.58772 0,0 1.64386,-0.83759 1.64386,-0.83759 z"
         id="path1726"
         style="fill:#ffff00;fill-opacity:1;stroke:none;stroke-width:10;stroke-miterlimit:4;stroke-dasharray:none;stroke-opacity:1" />
      <path
         inkscape:connector-curvature="0"
         d="m 57.212576,282.36013 c 0.323183,0.75914 0.483928,1.56572 0.573204,2.38167 0.06829,0.8971 -0.305525,1.65314 -0.790924,2.37284 -0.709814,0.72736 -1.834775,1.19581 -2.65044,1.6555 -0.187156,0.10549 -0.748885,0.42116 -0.565068,0.30996 0.292894,-0.17717 1.190027,-0.67723 0.892474,-0.508 -0.726332,0.41309 -1.452544,0.82639 -2.178815,1.23959 -1.153535,0.64371 -2.307106,1.29149 -3.490875,1.87847 -1.056214,0.56554 0.165457,-0.0806 -0.85467,0.43516 -0.134007,0.0677 -0.527365,0.28728 -0.397923,0.21116 2.754053,-1.61951 -0.141071,0.1582 -1.153793,0.63032 -0.910142,0.53996 0.197784,-0.1215 0.905473,-0.49112 0.109779,-0.0573 -0.205668,0.13811 -0.310597,0.20391 -0.357428,0.2241 -0.708043,0.45202 -1.058158,0.68779 0,0 -1.683981,0.65862 -1.683981,0.65862 v 0 c 1.163365,-0.7635 2.321968,-1.53966 3.559509,-2.18545 0.124491,-0.0619 0.491543,-0.2593 0.373472,-0.18585 -0.379312,0.23598 -1.54523,0.89739 -1.158298,0.67411 1.050944,-0.6064 2.080728,-1.23092 3.174079,-1.75456 1.16432,-0.58626 2.309609,-1.21079 3.444928,-1.85116 -3.30091,1.96205 4.58166,-2.7582 0.821314,-0.43992 -0.225988,0.13933 0.844212,-0.43971 0.663134,-0.44111 0.480136,-0.69059 0.924597,-1.38208 0.866309,-2.26589 -0.09255,-0.78926 -0.22202,-1.58515 -0.587751,-2.3008 0,0 1.607397,-0.91524 1.607397,-0.91524 z"
         id="path1728"
         style="fill:#ffff00;fill-opacity:1;stroke:none;stroke-width:10;stroke-miterlimit:4;stroke-dasharray:none;stroke-opacity:1" />
      <path
         inkscape:connector-curvature="0"
         d="m 59.522732,229.76018 c -0.659921,-0.33909 -1.32081,-0.67383 -2.003065,-0.96898 -1.013351,-0.27928 -2.045787,-0.49705 -3.085542,-0.65446 -0.981355,-0.13844 -1.948873,-0.34081 -2.93643,-0.4407 -1.154716,-0.0934 -2.314403,-0.0997 -3.472217,-0.10412 -1.052351,-0.01 -2.104509,0.05 -3.153008,-0.0501 -1.268687,-0.12747 -2.173295,-0.16434 -2.93134,-1.27986 -0.429373,-0.82269 -0.293523,-1.66641 0.136904,-2.44959 0.324337,-0.49576 0.677846,-0.96942 1.029713,-1.44555 0,0 1.660136,-0.71709 1.660136,-0.71709 v 0 c -0.348977,0.47508 -0.714849,0.93458 -1.036502,1.4296 -0.455319,0.69904 -0.622195,1.49339 -0.235289,2.27007 0.693145,1.02991 1.652675,1.06707 2.814158,1.16371 1.048137,0.0532 2.097911,0.0229 3.147182,0.0397 1.166937,0.009 2.335808,0.008 3.499554,0.10631 0.987425,0.10887 1.957435,0.30815 2.940037,0.44972 1.052221,0.17636 2.103125,0.39004 3.129769,0.67962 0.68793,0.30418 1.355159,0.65004 2.041155,0.95504 0,0 -1.545215,1.01669 -1.545215,1.01669 z"
         id="path1730"
         style="fill:#ffff00;fill-opacity:1;stroke:none;stroke-width:10;stroke-miterlimit:4;stroke-dasharray:none;stroke-opacity:1" />
      <path
         inkscape:connector-curvature="0"
         d="m 63.881735,213.28966 c 0.416372,-0.67585 0.704707,-1.41693 1.116811,-2.09523 0.357979,-0.57101 0.643864,-1.18159 0.978686,-1.76616 0.381241,-0.53101 0.70716,-1.09835 1.03976,-1.66063 0.605065,-0.81835 1.19231,-1.64726 1.732581,-2.51002 0.64929,-1.04725 1.153091,-2.1698 1.633477,-3.30086 0.349499,-0.75754 0.509902,-1.5653 0.587999,-2.3897 0.123746,-0.83996 -0.08686,-1.61955 -0.377047,-2.40035 -0.29146,-0.74068 -0.674687,-1.45985 -1.125942,-2.11659 -0.248878,-0.38288 -0.133424,-0.18708 -0.346723,-0.58717 0,0 1.583134,-0.90607 1.583134,-0.90607 v 0 c 0.202208,0.38688 0.09194,0.1956 0.332018,0.57317 0.447833,0.67753 0.839885,1.40405 1.127582,2.16389 0.306441,0.79924 0.555453,1.59812 0.430517,2.46424 -0.07281,0.84537 -0.22439,1.67668 -0.586234,2.45233 -0.500095,1.13665 -1.009172,2.26922 -1.650371,3.33631 -0.517043,0.8571 -1.059553,1.69725 -1.682313,2.4823 -0.318564,0.56577 -0.634053,1.14232 -1.031523,1.65573 -0.33356,0.59018 -0.639075,1.19315 -0.981321,1.7783 -0.442418,0.64792 -0.712251,1.38271 -1.095854,2.06406 0,0 -1.685237,0.76245 -1.685237,0.76245 z"
         id="path1732"
         style="fill:#ffff00;fill-opacity:1;stroke:none;stroke-width:10;stroke-miterlimit:4;stroke-dasharray:none;stroke-opacity:1" />
      <path
         inkscape:connector-curvature="0"
         d="m 94.710455,212.92504 c 0.911548,0.0183 1.823458,0.0174 2.73517,0.0162 0.870783,-0.002 1.741564,-0.005 2.612355,-0.006 0.83714,-8e-4 1.67427,0.003 2.51143,0.002 0.86428,0.0202 1.7159,0.008 2.57132,-0.1165 0.89296,-0.15425 1.79813,-0.20347 2.70211,-0.23923 0.92648,-0.13133 1.80805,-0.42414 2.7343,-0.56622 1.03791,-0.16465 2.08499,-0.31911 3.11332,-0.53841 0.86485,-0.19979 1.74163,-0.31152 2.60503,-0.51519 0.97383,-0.16355 1.93141,-0.38368 2.91333,-0.49991 1.07208,-0.15597 2.11592,-0.43768 3.17405,-0.66024 1.03107,-0.13008 2.05712,-0.27563 3.08416,-0.43605 0.96914,-0.14621 1.92732,-0.36811 2.88177,-0.59207 0.99127,-0.25104 1.99506,-0.44809 2.99043,-0.68062 0.96081,-0.20042 1.90068,-0.47405 2.86764,-0.64668 -0.17605,0.28141 1.52525,-0.66042 1.1286,-0.4339 -2.22917,1.27303 -1.12587,0.70014 -0.64075,0.21875 0.25709,-0.36955 0.14556,-0.17544 0.33493,-0.58213 0,0 1.6546,-0.76069 1.6546,-0.76069 v 0 c -0.17332,0.44373 -0.0694,0.22984 -0.31217,0.64149 -0.90867,1.04281 -2.26951,1.67197 -3.59776,1.99747 -0.96146,0.18065 -1.89989,0.45501 -2.85845,0.6497 -0.99626,0.22457 -1.99532,0.43488 -2.98714,0.67923 -0.95755,0.22482 -1.91901,0.44786 -2.89359,0.58391 -1.02495,0.15856 -2.05236,0.28561 -3.07687,0.44309 -1.0541,0.22808 -2.09987,0.492 -3.17031,0.63899 -0.98542,0.13595 -1.95314,0.35883 -2.93136,0.53595 -0.85917,0.19524 -1.73412,0.2974 -2.59233,0.49948 -1.03096,0.19988 -2.06954,0.37162 -3.10804,0.5263 -0.92912,0.16558 -1.82329,0.48033 -2.76626,0.56234 -0.90095,0.0374 -1.80024,0.10326 -2.69058,0.25258 -0.86091,0.11379 -1.72163,0.11523 -2.58919,0.0987 -0.83917,-7.9e-4 -1.678303,0.003 -2.517463,0.002 -0.865066,-0.001 -1.730129,-0.004 -2.595192,-0.006 -0.926555,-0.001 -1.853288,-0.002 -2.779686,0.0162 0,0 1.492596,-1.08443 1.492596,-1.08443 z"
         id="path1734"
         style="fill:#ffff00;fill-opacity:1;stroke:none;stroke-width:10;stroke-miterlimit:4;stroke-dasharray:none;stroke-opacity:1" />
      <path
         inkscape:connector-curvature="0"
         d="m 111.3648,212.61009 c -0.3213,-0.69689 -0.63707,-1.3955 -0.94711,-2.09959 -0.32443,-0.7048 -0.58019,-1.41683 -0.7243,-2.18084 -0.0991,-0.75285 -0.17194,-1.52013 -0.10142,-2.27817 0.056,-0.778 0.38454,-1.29085 0.93514,-1.81648 0.57223,-0.60837 1.2421,-1.10861 1.95733,-1.53429 1.37277,-0.80177 -0.46643,0.26943 2.53443,-1.44418 0.35233,-0.20119 -0.70422,0.40328 -1.06108,0.59631 -0.14338,0.0776 0.28098,-0.16538 0.42044,-0.24978 0.44241,-0.26771 0.36082,-0.22027 0.78869,-0.50826 0.60915,-0.39956 1.25125,-0.77538 1.64833,-1.40086 0.11344,-0.55027 -0.46004,-0.82005 -0.85789,-1.05158 -0.63302,-0.39455 -1.31446,-0.7036 -1.97976,-1.04138 -0.78729,-0.42516 -1.62712,-0.77001 -2.47094,-1.0704 -0.64314,-0.33121 -1.27948,-0.65558 -1.94273,-0.94881 -0.77751,-0.4058 -1.56878,-0.77994 -2.35431,-1.16972 -0.68447,-0.36771 -1.35006,-0.7689 -2.02518,-1.1544 -0.57988,-0.31627 -1.10604,-0.70512 -1.63623,-1.09516 -0.55746,-0.28 -0.97685,-0.74791 -1.36811,-1.22163 -0.58802,-0.53557 -0.9257,-1.23306 -1.25528,-1.942 -0.32396,-0.89894 -0.72674,-1.77174 -0.984137,-2.69349 -0.09492,-0.36455 -0.131916,-0.73874 -0.168534,-1.11229 0,0 1.611041,-0.83982 1.611041,-0.83982 v 0 c 0.0322,0.36459 0.0644,0.72986 0.15048,1.08684 0.23852,0.9171 0.61214,1.79399 0.93743,2.68196 0.33772,0.68703 0.7201,1.34256 1.27677,1.87801 0.38696,0.46454 0.80538,0.89903 1.34735,1.18344 0.51909,0.39294 1.04478,0.77029 1.61872,1.08169 0.66398,0.39422 1.32235,0.80179 2.01051,1.15128 0.77669,0.40158 1.5617,0.78732 2.35387,1.15693 0.66467,0.28202 1.27785,0.64159 1.92953,0.94561 0.84244,0.32217 1.6791,0.67661 2.48184,1.08625 0.67641,0.32691 1.35039,0.66307 1.99847,1.04253 0.50784,0.28826 1.0622,0.64062 0.99666,1.30267 -0.35934,0.68516 -1.00116,1.08708 -1.64558,1.4876 -0.75491,0.52588 -5.06997,3.05052 -2.19578,1.33198 0.16187,-0.0968 -0.32462,0.19206 -0.48693,0.28809 -0.71523,0.4068 -1.39739,0.88836 -1.96059,1.4924 -0.54242,0.49375 -0.90726,0.93322 -0.96985,1.69368 -0.11655,0.73701 -0.01,1.49603 0.067,2.23334 0.13507,0.75304 0.3926,1.44831 0.70224,2.14559 0.30344,0.70275 0.6112,1.39937 0.97691,2.07171 0,0 -1.6074,0.91522 -1.6074,0.91522 z"
         id="path1736"
         style="fill:#ffff00;fill-opacity:1;stroke:none;stroke-width:10;stroke-miterlimit:4;stroke-dasharray:none;stroke-opacity:1" />
      <path
         inkscape:connector-curvature="0"
         d="m 91.686643,206.87742 c 1.110626,0.0306 2.22173,0.0256 3.332634,0.0212 1.013764,-0.005 2.027563,-0.008 3.04134,-0.005 1.067269,-0.001 2.134513,0.004 3.201773,0.005 1.3843,-0.0113 2.76789,0.0412 4.15063,-0.0316 1.93146,-0.18495 3.874,-0.17847 5.80688,-0.33022 1.71544,-0.15043 3.41329,-0.45372 5.11137,-0.73255 1.94544,-0.22492 3.88673,-0.47369 5.81481,-0.82293 1.7663,-0.32329 3.53914,-0.55598 5.2909,-0.95572 1.38573,-0.28011 2.78884,-0.47534 4.16887,-0.78479 0.94498,-0.29506 1.94041,-0.32898 2.90167,-0.52625 0.28497,-0.0631 0.4986,-0.0943 0.76617,-0.21656 0.55964,-0.25575 2.38796,-1.34052 -0.36781,0.20872 1.03555,-0.79893 2.21524,-1.38807 3.36412,-2.00527 0.89018,-0.47447 1.80547,-0.9027 2.70596,-1.35959 0.9163,-0.43828 1.83559,-0.86733 2.73349,-1.34279 0.18148,-0.0963 0.72208,-0.3921 0.54445,-0.28888 -0.33121,0.19244 -1.33451,0.75261 -1.00535,0.55668 6.83858,-4.07073 -0.8268,0.53415 1.38951,-0.83049 0.13255,-0.0816 0.26401,-0.16497 0.39601,-0.24746 0.74748,-0.4696 1.46323,-0.96714 2.13335,-1.54119 0.56567,-0.52419 1.04325,-1.13211 1.38802,-1.81996 0.41127,-0.86238 0.68667,-1.77366 0.88529,-2.70525 0,0 1.60993,-0.77802 1.60993,-0.77802 v 0 c -0.20155,0.93942 -0.48073,1.85709 -0.8691,2.7379 -0.27948,0.73326 -0.7874,1.32971 -1.33695,1.88676 -0.68099,0.57078 -1.3718,1.10939 -2.13577,1.56955 -0.91981,0.5828 -1.8698,1.11918 -2.80618,1.67365 -0.33164,0.19638 1.32893,-0.78144 0.99695,-0.58565 -2.1577,1.2725 -1.34418,0.82829 -2.57588,1.48591 -0.90027,0.47463 -1.82389,0.90041 -2.74,1.34326 -0.91265,0.45331 -1.82807,0.90055 -2.72636,1.38137 -0.78069,0.41104 -0.41083,0.22373 0.88335,-0.54642 0.1024,-0.0609 -0.20493,0.12168 -0.30849,0.1806 -0.32043,0.18227 -0.27492,0.13135 -0.56787,0.35727 -0.0882,0.068 -0.17118,0.14269 -0.25678,0.21404 -1.11038,0.65365 -2.24442,1.5045 -3.54053,1.75921 -0.95759,0.15807 -1.92735,0.24786 -2.86728,0.50673 -1.37548,0.28412 -2.76676,0.48595 -4.14284,0.76658 -1.73912,0.37807 -3.49842,0.6027 -5.24968,0.91533 -1.94372,0.34079 -3.89677,0.60946 -5.85481,0.85047 -1.69053,0.28293 -3.38536,0.56924 -5.09546,0.70106 -1.94131,0.12811 -3.88827,0.16492 -5.82698,0.34069 -1.39997,0.0712 -2.80165,0.0583 -4.203199,0.0588 -1.071465,0.001 -2.142916,0.006 -3.214394,0.005 -1.009152,0.003 -2.018331,-7e-5 -3.027473,-0.005 -1.130327,-0.004 -2.260817,-0.009 -3.390885,0.0212 0,0 1.492594,-1.08444 1.492594,-1.08444 z"
         id="path1738"
         style="fill:#ffff00;fill-opacity:1;stroke:none;stroke-width:10;stroke-miterlimit:4;stroke-dasharray:none;stroke-opacity:1" />
      <path
         inkscape:connector-curvature="0"
         d="m 130.61819,221.24052 c 0.87006,0.0204 1.74047,0.0116 2.61069,0.0151 1.10034,-0.0515 2.16874,-0.3169 3.25223,-0.48509 1.05388,-0.15914 2.11749,-0.22941 3.18178,-0.2646 0.79734,1.3e-4 1.58048,5.2e-4 2.3667,-0.13518 0.82061,-0.16015 1.65706,-0.19841 2.49044,-0.23097 0.98558,-0.0211 1.97171,-0.018 2.95754,-0.0212 0.97381,0.0629 1.92867,-0.0517 2.89103,-0.1778 0.96498,-0.11265 1.93531,-0.16224 2.90593,-0.18964 0.86332,-0.0187 1.72693,-0.0122 2.5904,-0.0127 1.14428,-0.0606 2.25511,0.058 3.35865,0.35848 1.08213,0.38032 2.13319,0.86981 2.97185,1.66337 0.48508,0.54452 1.06308,0.9851 1.60129,1.47304 0.63711,0.50059 1.34986,0.76133 2.13603,0.91071 0.77835,0.0729 1.62022,0.28302 2.35993,-0.0452 1.15171,-0.63586 -1.88188,1.21469 -0.8685,0.445 0,0 1.70488,-0.67974 1.70488,-0.67974 v 0 c -0.70179,0.53896 -1.45806,1.02335 -2.27786,1.35977 -0.78041,0.21692 -1.60674,0.0482 -2.39589,-0.0503 -0.81147,-0.16942 -1.5535,-0.45789 -2.21025,-0.97907 -0.53733,-0.48817 -1.10528,-0.93934 -1.58275,-1.48957 -0.80869,-0.77462 -1.82894,-1.26071 -2.88455,-1.61305 -1.11446,-0.27873 -2.22495,-0.34864 -3.37168,-0.2937 -0.86268,-0.002 -1.7254,-2.7e-4 -2.58794,0.0172 -0.96425,0.026 -1.929,0.0717 -2.88614,0.1979 -0.96731,0.12605 -1.92903,0.20967 -2.9065,0.16033 -0.98685,-0.002 -1.97394,-0.005 -2.96028,0.0322 -0.83303,0.0359 -1.6655,0.0943 -2.48546,0.25442 -0.7873,0.12086 -1.57597,0.0985 -2.37091,0.10912 -1.05104,0.0324 -2.10233,0.0964 -3.14171,0.26419 -1.09188,0.19127 -2.17699,0.43284 -3.28929,0.47619 -0.88408,0.004 -1.76833,-0.005 -2.65225,0.0151 0,0 1.49259,-1.08443 1.49259,-1.08443 z"
         id="path1740"
         style="fill:#ffff00;fill-opacity:1;stroke:none;stroke-width:10;stroke-miterlimit:4;stroke-dasharray:none;stroke-opacity:1" />
      <path
         inkscape:connector-curvature="0"
         d="m 141.93857,238.75172 c 0.7515,0.3072 1.54116,0.53313 2.32485,0.74967 0.85193,0.23204 1.73574,0.35611 2.58285,0.60142 0.76599,0.30006 1.59151,0.30194 2.38949,0.44545 0.74703,0.17651 1.50599,0.27282 2.27079,0.32263 0.84849,0.0433 1.69849,0.0394 2.54781,0.0388 0.90939,-0.004 1.81873,0.004 2.72812,0.002 0.98748,0.0123 1.96407,0.0275 2.9415,-0.12151 0.85748,-0.17241 1.70005,-0.39663 2.56875,-0.52113 0.79414,-0.20763 1.58441,-0.44176 2.35422,-0.72802 0.88047,-0.42122 1.79506,-0.76677 2.67246,-1.19548 0.15999,-0.0736 0.31998,-0.14719 0.47997,-0.22078 0.15522,-0.062 0.31319,-0.11761 0.46566,-0.18612 0.13561,-0.0609 0.52557,-0.27779 0.39773,-0.20187 -0.38953,0.23133 -0.78691,0.44925 -1.18339,0.66845 -0.11725,0.0648 0.22902,-0.13917 0.34557,-0.20525 0.63063,-0.35754 1.26392,-0.71037 1.89588,-1.06555 -0.23658,0.10856 0.91928,-0.48109 0.69791,-0.34552 -0.40765,0.24964 -1.65874,0.95098 -1.24654,0.70893 0.61549,-0.36143 1.23566,-0.71485 1.85646,-1.06708 0.11319,-0.0642 0.46036,-0.24301 0.3453,-0.18219 -0.33851,0.17891 -0.67711,0.35766 -1.01568,0.53649 0.772,-0.49031 1.53506,-0.99628 2.27347,-1.53589 0,0 1.64629,-0.65308 1.64629,-0.65308 v 0 c -0.73573,0.54647 -1.50391,1.0492 -2.27617,1.5425 -0.67971,0.41517 -1.35652,0.83512 -2.03913,1.24551 -0.11422,0.0687 -0.46558,0.25953 -0.35101,0.19144 0.41672,-0.24763 1.68053,-0.96706 1.25761,-0.73019 -0.85915,0.48122 -1.68012,0.99797 -2.56402,1.42242 0.40281,-0.2393 0.8062,-0.47764 1.20845,-0.7179 0.11607,-0.0693 -0.23297,0.13725 -0.34991,0.20511 -1.07508,0.62391 -2.08799,1.25043 -3.23792,1.70165 -0.89081,0.42117 -1.80424,0.79214 -2.703,1.19596 -0.77874,0.26978 -1.56485,0.53168 -2.37311,0.69772 -0.86582,0.13374 -1.70481,0.37629 -2.56772,0.51852 -0.97933,0.12588 -1.96221,0.0982 -2.94804,0.0954 -0.91419,-1.3e-4 -1.8283,0.01 -2.74249,0.008 -0.85405,-0.003 -1.70851,-0.005 -2.56183,-0.0442 -0.76548,-0.0585 -1.52289,-0.16961 -2.27101,-0.34501 -0.80684,-0.13551 -1.6379,-0.1467 -2.40873,-0.45534 -0.8481,-0.23796 -1.72315,-0.38482 -2.57644,-0.60562 -0.79867,-0.23332 -1.60208,-0.46115 -2.38021,-0.75361 0,0 1.54521,-1.01669 1.54521,-1.01669 z"
         id="path1742"
         style="fill:#ffff00;fill-opacity:1;stroke:none;stroke-width:10;stroke-miterlimit:4;stroke-dasharray:none;stroke-opacity:1" />
      <path
         inkscape:connector-curvature="0"
         d="m 138.88639,265.65783 c 0.41777,0.62164 0.96605,1.13297 1.46784,1.68317 0.47594,0.38352 0.93774,0.76198 1.32994,1.23606 0.42721,0.69781 0.89804,1.36517 1.36359,2.03694 0.36985,0.58809 0.75345,1.16758 1.13948,1.74541 0.48651,0.92935 0.8759,1.90275 1.37601,2.82514 0.53479,0.91538 1.19564,1.74384 1.83777,2.58392 0.53587,0.55443 1.07551,1.10389 1.60625,1.66291 0.57322,0.5698 1.15821,1.12564 1.74096,1.68582 0.73402,0.71003 1.43532,1.43158 2.00033,2.28533 0.42379,0.72965 0.87854,1.4342 1.36242,2.12455 0.26023,0.29396 0.11954,0.16323 0.41942,0.39497 0,0 -1.55161,0.97301 -1.55161,0.97301 v 0 c -0.31619,-0.26855 -0.16932,-0.12105 -0.43955,-0.4436 -0.47412,-0.69816 -0.90416,-1.41928 -1.33501,-2.14474 -0.55495,-0.83942 -1.25445,-1.55223 -1.98024,-2.24568 -0.61751,-0.53342 -1.17384,-1.12696 -1.76874,-1.68463 -0.53165,-0.56575 -1.07946,-1.11588 -1.60649,-1.68576 -0.63943,-0.85177 -1.2682,-1.71384 -1.80914,-2.63258 -0.48996,-0.91892 -0.94132,-1.85634 -1.42772,-2.77685 -0.37765,-0.58267 -0.76964,-1.1539 -1.12568,-1.74967 -0.45453,-0.67289 -0.9148,-1.34104 -1.37526,-2.01009 -0.39167,-0.46781 -0.85518,-0.83902 -1.31144,-1.23833 -0.49698,-0.55306 -1.02266,-1.07995 -1.49201,-1.65777 0,0 1.57888,-0.96753 1.57888,-0.96753 z"
         id="path1744"
         style="fill:#ffff00;fill-opacity:1;stroke:none;stroke-width:10;stroke-miterlimit:4;stroke-dasharray:none;stroke-opacity:1" />
      <path
         inkscape:connector-curvature="0"
         d="m 58.7063,251.0485 c -1.027822,-0.0224 -2.056032,-0.018 -3.084031,-0.0146 -1.195433,-0.002 -2.390728,-0.009 -3.586176,-0.004 -1.13161,0.005 -2.263233,-2e-5 -3.394853,0.002 -1.094944,0.001 -2.189861,-8e-4 -3.284807,0.003 -0.851858,0.004 -1.703721,0.006 -2.555584,0.007 -0.849273,-0.023 -1.703321,0.0483 -2.547615,-0.0552 -0.841163,-0.0249 -1.553445,-0.41849 -2.318305,-0.7074 -0.73006,-0.29651 -1.375683,-0.74798 -2.07595,-1.09995 -0.673584,-0.37819 -1.353836,-0.75687 -1.956893,-1.24259 -0.570862,-0.37212 -1.14659,-0.74558 -1.641163,-1.21652 -0.737925,-0.66905 -1.469067,-1.34681 -2.174555,-2.05036 -0.936127,-0.98133 -1.748631,-2.06987 -2.684256,-3.05179 -0.517977,-0.69708 -1.111763,-1.32931 -1.643534,-2.01537 -0.574742,-0.7055 -1.131235,-1.42693 -1.646129,-2.1775 -0.398632,-0.65781 -0.944848,-1.20177 -1.389805,-1.82366 -0.607162,-0.86576 -1.220343,-1.72616 -1.835881,-2.58601 0,0 1.53292,-0.90358 1.53292,-0.90358 v 0 c 0.60353,0.87016 1.227605,1.72548 1.874173,2.5626 0.440719,0.62462 0.973764,1.18058 1.37052,1.83897 0.509451,0.75001 1.068756,1.4656 1.645249,2.16492 0.531159,0.67915 1.119938,1.30891 1.621935,2.01116 0.89576,1.00883 1.680591,2.11656 2.652165,3.05628 0.749927,0.6645 1.452094,1.37781 2.223249,2.01742 0.510778,0.44779 1.069956,0.8342 1.638953,1.20422 0.594672,0.47704 1.258258,0.85818 1.929387,1.21688 0.686993,0.36361 1.338019,0.79018 2.060892,1.08597 0.750835,0.292 1.463045,0.64521 2.288813,0.67077 0.844939,0.0768 1.694727,0.0218 2.542288,0.0353 0.845431,0.001 1.69086,0.003 2.536283,0.007 1.091845,0.004 2.183662,0.002 3.275507,0.003 1.129943,0.002 2.259891,-0.004 3.389826,0.002 1.199517,0.005 2.398882,-0.002 3.598381,-0.004 1.041431,0.003 2.083054,0.007 3.124321,-0.0146 0,0 -1.485325,1.07915 -1.485325,1.07915 z"
         id="path1746"
         style="fill:#ffff00;fill-opacity:1;stroke:none;stroke-width:10;stroke-miterlimit:4;stroke-dasharray:none;stroke-opacity:1" />
      <path
         inkscape:connector-curvature="0"
         d="m 65.879342,226.42229 c -0.826109,-0.30317 -1.68278,-0.49007 -2.552888,-0.60711 -0.927468,-0.17529 -1.839365,-0.415 -2.76366,-0.60426 -0.995061,-0.16776 -1.999864,-0.21562 -2.99747,-0.36643 -1.031587,-0.10881 -2.039713,-0.35068 -3.067212,-0.4876 -1.175424,-0.14552 -2.339631,-0.34597 -3.521397,-0.44444 -1.217147,-0.0832 -2.437726,-0.0938 -3.657233,-0.0962 -1.033203,-0.002 -2.066425,-2.7e-4 -3.099625,0.003 -0.93146,0.0619 -1.841635,-0.0433 -2.760022,-0.1772 -0.843111,-0.15233 -1.714535,-0.0563 -2.524064,-0.35703 -0.623885,-0.36751 -0.601356,-1.00596 -0.345141,-1.60091 0.365582,-0.58026 1.005533,-0.88704 1.529847,-1.30709 0.410152,-0.30913 0.1994,-0.1642 0.632023,-0.4351 0,0 1.692921,-0.65234 1.692921,-0.65234 v 0 c -0.441727,0.24896 -0.227812,0.11265 -0.64157,0.40922 -0.506481,0.4279 -1.109652,0.72909 -1.540695,1.22933 -0.277095,0.46886 -0.375232,1.03804 0.179819,1.33864 0.802203,0.27124 1.663837,0.17109 2.490179,0.33707 0.91037,0.13243 1.814608,0.21183 2.736567,0.16175 1.030988,0.001 2.061969,-0.002 3.092955,0.003 1.216618,0.0142 2.433619,0.0341 3.647776,0.11964 1.187609,0.0991 2.358281,0.29902 3.54049,0.4416 1.029811,0.13736 2.042491,0.37189 3.076054,0.48476 1.000037,0.14718 2.011794,0.18185 3.005291,0.37342 0.923208,0.19519 1.838806,0.42136 2.768232,0.58725 0.87617,0.13303 1.728158,0.35519 2.581158,0.59232 0,0 -1.502335,1.05405 -1.502335,1.05405 z"
         id="path1748"
         style="fill:#ffff00;fill-opacity:1;stroke:none;stroke-width:10;stroke-miterlimit:4;stroke-dasharray:none;stroke-opacity:1" />
      <path
         inkscape:connector-curvature="0"
         d="m 39.65131,252.5581 c -0.470136,0.57471 -1.03169,1.05948 -1.601423,1.53147 -0.864007,0.70695 -1.882269,1.19098 -2.83488,1.75967 -0.375627,0.22424 0.751287,-0.45018 1.143047,-0.64487 0.15494,-0.077 -0.286739,0.19371 -0.430109,0.29057 -0.885111,0.52631 -1.679586,1.17765 -2.49401,1.80228 -1.505056,0.97472 -2.898913,2.10623 -4.271224,3.25711 -1.129427,0.91428 -2.114185,1.97816 -3.133338,3.00747 -0.63166,0.63903 -1.093347,1.40959 -1.576647,2.15985 -0.548871,0.76197 -1.00645,1.58199 -1.498021,2.38029 0,0 -1.62547,0.71623 -1.62547,0.71623 v 0 c 0.505652,-0.78518 0.928321,-1.6225 1.484248,-2.37596 0.485152,-0.758 0.928248,-1.54905 1.564119,-2.19646 1.058609,-1.04329 2.074046,-2.13043 3.235219,-3.06535 1.343136,-1.12436 2.682788,-2.27015 4.156858,-3.22086 0.825564,-0.61174 1.597464,-1.29868 2.49477,-1.8107 0.139594,-0.0983 0.272999,-0.20602 0.418782,-0.29487 2.894727,-1.76425 2.246347,-1.28409 0.735452,-0.43781 -0.869532,0.48704 1.847202,-1.03333 0.94588,-0.6499 0.570283,-0.44382 1.14559,-0.91464 1.575948,-1.49952 0,0 1.710799,-0.70864 1.710799,-0.70864 z"
         id="path1750"
         style="fill:#ffff00;fill-opacity:1;stroke:none;stroke-width:10;stroke-miterlimit:4;stroke-dasharray:none;stroke-opacity:1" />
      <path
         inkscape:connector-curvature="0"
         d="m 37.18878,253.99853 c -0.441423,0.2473 -0.87212,0.5148 -1.324269,0.7419 -0.115051,0.0578 0.205322,-0.15542 0.308877,-0.23191 0.07671,-0.0567 0.62593,-0.45538 0.693944,-0.50211 0.72362,-0.49725 1.546627,-0.90915 2.289614,-1.33024 0.746663,-0.33179 1.508226,-0.58093 2.314541,-0.71217 1.023493,-0.21634 2.035286,-0.47825 3.069151,-0.64177 1.107614,-0.11378 2.207434,-0.27975 3.315613,-0.38961 0,0 -1.352524,1.00804 -1.352524,1.00804 v 0 c -1.125847,0.16217 -2.250853,0.32474 -3.38152,0.44809 -1.042517,0.18007 -2.063727,0.44965 -3.09879,0.66614 -0.791509,0.14827 -1.545143,0.40772 -2.274144,0.75136 0.388673,-0.23151 0.775216,-0.46662 1.166019,-0.69452 0.126132,-0.0735 -0.250812,0.14985 -0.371906,0.23143 -0.932194,0.628 -1.696368,1.4067 -2.799038,1.81078 0,0 1.444432,-1.15541 1.444432,-1.15541 z"
         id="path1752"
         style="fill:#ffff00;fill-opacity:1;stroke:none;stroke-width:10;stroke-miterlimit:4;stroke-dasharray:none;stroke-opacity:1" />
    </g>
  </g>
</svg>
