<?xml version="1.0" encoding="UTF-8" standalone="no"?>
<!-- Created with Inkscape (http://www.inkscape.org/) -->

<svg
   xmlns:dc="http://purl.org/dc/elements/1.1/"
   xmlns:cc="http://creativecommons.org/ns#"
   xmlns:rdf="http://www.w3.org/1999/02/22-rdf-syntax-ns#"
   xmlns:svg="http://www.w3.org/2000/svg"
   xmlns="http://www.w3.org/2000/svg"
   xmlns:sodipodi="http://sodipodi.sourceforge.net/DTD/sodipodi-0.dtd"
   xmlns:inkscape="http://www.inkscape.org/namespaces/inkscape"
   width="210mm"
   height="297mm"
   viewBox="0 0 210 297"
   version="1.1"
   id="svg8"
   inkscape:version="0.92.4 (5da689c313, 2019-01-14)"
   sodipodi:docname="blitz.svg">
  <defs
     id="defs2">
    <filter
       inkscape:label="Metallized Paint"
       inkscape:menu="Materials"
       inkscape:menu-tooltip="Metallized effect with a soft lighting, slightly translucent at the edges"
       style="color-interpolation-filters:sRGB;"
       id="filter931">
      <feGaussianBlur
         stdDeviation="1"
         result="result1"
         id="feGaussianBlur905" />
      <feComposite
         in="result1"
         in2="result1"
         result="result4"
         operator="in"
         id="feComposite907" />
      <feBlend
         in="result1"
         mode="screen"
         result="result5"
         in2="result4"
         id="feBlend909" />
      <feGaussianBlur
         stdDeviation="8"
         result="result6"
         in="result5"
         id="feGaussianBlur911" />
      <feComposite
         operator="atop"
         in="result6"
         in2="result5"
         result="result8"
         id="feComposite913" />
      <feComposite
         operator="in"
         result="fbSourceGraphic"
         in="result6"
         in2="result8"
         id="feComposite915" />
      <feGaussianBlur
         result="result0"
         in="fbSourceGraphic"
         stdDeviation="2.5"
         id="feGaussianBlur917" />
      <feSpecularLighting
         specularExponent="45"
         specularConstant="1.5"
         surfaceScale="1"
         lighting-color="rgb(255,255,255)"
         result="result1"
         in="result0"
         id="feSpecularLighting921">
        <fePointLight
           z="21000"
           y="-9000"
           x="-6000"
           id="fePointLight919" />
      </feSpecularLighting>
      <feComposite
         operator="in"
         result="result2"
         in="result1"
         in2="fbSourceGraphic"
         id="feComposite923" />
      <feComposite
         k3="1"
         k2="1"
         operator="arithmetic"
         result="result4"
         in="fbSourceGraphic"
         in2="result2"
         id="feComposite925" />
      <feComposite
         operator="in"
         in="result9"
         in2="result4"
         result="result91"
         id="feComposite927" />
      <feBlend
         mode="multiply"
         in2="result91"
         id="feBlend929" />
    </filter>
    <filter
       inkscape:label="Metallized Paint"
       inkscape:menu="Materials"
       inkscape:menu-tooltip="Metallized effect with a soft lighting, slightly translucent at the edges"
       style="color-interpolation-filters:sRGB;"
       id="filter1043">
      <feGaussianBlur
         stdDeviation="1"
         result="result1"
         id="feGaussianBlur1017" />
      <feComposite
         in="result1"
         in2="result1"
         result="result4"
         operator="in"
         id="feComposite1019" />
      <feBlend
         in="result1"
         mode="screen"
         result="result5"
         in2="result4"
         id="feBlend1021" />
      <feGaussianBlur
         stdDeviation="8"
         result="result6"
         in="result5"
         id="feGaussianBlur1023" />
      <feComposite
         operator="atop"
         in="result6"
         in2="result5"
         result="result8"
         id="feComposite1025" />
      <feComposite
         operator="in"
         result="fbSourceGraphic"
         in="result6"
         in2="result8"
         id="feComposite1027" />
      <feGaussianBlur
         result="result0"
         in="fbSourceGraphic"
         stdDeviation="2.5"
         id="feGaussianBlur1029" />
      <feSpecularLighting
         specularExponent="45"
         specularConstant="1.5"
         surfaceScale="1"
         lighting-color="rgb(255,255,255)"
         result="result1"
         in="result0"
         id="feSpecularLighting1033">
        <fePointLight
           z="21000"
           y="-9000"
           x="-6000"
           id="fePointLight1031" />
      </feSpecularLighting>
      <feComposite
         operator="in"
         result="result2"
         in="result1"
         in2="fbSourceGraphic"
         id="feComposite1035" />
      <feComposite
         k3="1"
         k2="1"
         operator="arithmetic"
         result="result4"
         in="fbSourceGraphic"
         in2="result2"
         id="feComposite1037" />
      <feComposite
         operator="in"
         in="result9"
         in2="result4"
         result="result91"
         id="feComposite1039" />
      <feBlend
         mode="multiply"
         in2="result91"
         id="feBlend1041" />
    </filter>
    <filter
       inkscape:label="Metallized Paint"
       inkscape:menu="Materials"
       inkscape:menu-tooltip="Metallized effect with a soft lighting, slightly translucent at the edges"
       style="color-interpolation-filters:sRGB;"
       id="filter1071">
      <feGaussianBlur
         stdDeviation="1"
         result="result1"
         id="feGaussianBlur1045" />
      <feComposite
         in="result1"
         in2="result1"
         result="result4"
         operator="in"
         id="feComposite1047" />
      <feBlend
         in="result1"
         mode="screen"
         result="result5"
         in2="result4"
         id="feBlend1049" />
      <feGaussianBlur
         stdDeviation="8"
         result="result6"
         in="result5"
         id="feGaussianBlur1051" />
      <feComposite
         operator="atop"
         in="result6"
         in2="result5"
         result="result8"
         id="feComposite1053" />
      <feComposite
         operator="in"
         result="fbSourceGraphic"
         in="result6"
         in2="result8"
         id="feComposite1055" />
      <feGaussianBlur
         result="result0"
         in="fbSourceGraphic"
         stdDeviation="2.5"
         id="feGaussianBlur1057" />
      <feSpecularLighting
         specularExponent="45"
         specularConstant="1.5"
         surfaceScale="1"
         lighting-color="rgb(255,255,255)"
         result="result1"
         in="result0"
         id="feSpecularLighting1061">
        <fePointLight
           z="21000"
           y="-9000"
           x="-6000"
           id="fePointLight1059" />
      </feSpecularLighting>
      <feComposite
         operator="in"
         result="result2"
         in="result1"
         in2="fbSourceGraphic"
         id="feComposite1063" />
      <feComposite
         k3="1"
         k2="1"
         operator="arithmetic"
         result="result4"
         in="fbSourceGraphic"
         in2="result2"
         id="feComposite1065" />
      <feComposite
         operator="in"
         in="result9"
         in2="result4"
         result="result91"
         id="feComposite1067" />
      <feBlend
         mode="multiply"
         in2="result91"
         id="feBlend1069" />
    </filter>
    <filter
       inkscape:label="Blur Double"
       inkscape:menu="Blurs"
       inkscape:menu-tooltip="Overlays two copies with different blur amounts and modifiable blend and composite"
       style="color-interpolation-filters:sRGB;"
       id="filter71">
      <feGaussianBlur
         stdDeviation="5"
         result="fbSourceGraphic"
         id="feGaussianBlur63" />
      <feGaussianBlur
         stdDeviation="0.01"
         in="SourceGraphic"
         result="result1"
         id="feGaussianBlur65" />
      <feComposite
         in2="result1"
         operator="arithmetic"
         in="fbSourceGraphic"
         k2="0.5"
         k3="0.5"
         result="result2"
         id="feComposite67" />
      <feBlend
         in2="fbSourceGraphic"
         mode="normal"
         result="result3"
         id="feBlend69" />
    </filter>
  </defs>
  <sodipodi:namedview
     id="base"
     pagecolor="#ffffff"
     bordercolor="#666666"
     borderopacity="1.0"
     inkscape:pageopacity="0.0"
     inkscape:pageshadow="2"
     inkscape:zoom="0.35"
     inkscape:cx="-260"
     inkscape:cy="560"
     inkscape:document-units="mm"
     inkscape:current-layer="layer1"
     showgrid="false"
     inkscape:window-width="1280"
     inkscape:window-height="658"
     inkscape:window-x="-8"
     inkscape:window-y="-8"
     inkscape:window-maximized="1" />
  <metadata
     id="metadata5">
    <rdf:RDF>
      <cc:Work
         rdf:about="">
        <dc:format>image/svg+xml</dc:format>
        <dc:type
           rdf:resource="http://purl.org/dc/dcmitype/StillImage" />
        <dc:title></dc:title>
      </cc:Work>
    </rdf:RDF>
  </metadata>
  <g
     inkscape:label="Ebene 1"
     inkscape:groupmode="layer"
     id="layer1">
    <circle
       style="fill:#000000;fill-opacity:1;stroke:none;stroke-width:0.24166174;stroke-miterlimit:4;stroke-dasharray:none;stroke-opacity:1;filter:url(#filter1043)"
       id="path815"
       cx="50"
       cy="247"
       r="50"
       inkscape:export-xdpi="13.546666"
       inkscape:export-ydpi="13.546666" />
    <path
       style="fill:#ffff00;fill-opacity:1;stroke:none;stroke-width:10;stroke-miterlimit:4;stroke-dasharray:none;stroke-opacity:1;filter:url(#filter71)"
       id="path61"
       d="m 56.678181,206.73493 c -1.614834,1.05367 -3.159876,2.20632 -4.644167,3.43598 -1.640671,1.2977 -3.306183,2.56343 -4.911977,3.90457 -1.456335,1.30546 -2.889837,2.63496 -4.310729,3.97876 -0.845015,0.83101 -1.717468,1.63642 -2.516028,2.51267 -0.705448,0.9705 -1.502646,1.87675 -2.184221,2.86343 -0.561263,1.04208 -1.044815,2.09964 -1.311023,3.25466 -0.24996,1.40143 -0.255585,2.83056 -0.271412,4.24955 0.0365,1.1178 0.795996,1.80447 1.755359,2.25215 1.24423,0.40527 2.571083,0.40524 3.866396,0.43208 1.616419,0.01 3.232917,0.0129 4.849371,0.008 1.648372,-0.008 3.296753,-0.0133 4.945142,-0.0163 1.100621,-0.16064 1.90016,0.24706 1.176972,1.40438 -1.191779,0.84235 -2.444089,1.60994 -3.614573,2.49851 -1.433063,1.16462 -2.924218,2.29295 -4.140145,3.69043 -0.863764,1.17911 -1.712489,2.40049 -2.274467,3.75579 -0.451485,1.33042 -0.481041,2.74522 -0.515776,4.13537 0.06792,1.13841 0.526423,2.19767 1.096103,3.17208 0.751634,1.1039 1.821339,1.92491 2.854701,2.74989 1.30852,0.7975 2.59448,1.59828 3.854013,2.47007 1.41405,0.85798 2.996359,1.36736 4.452289,2.14005 1.357463,0.62632 2.720253,1.26584 4.175527,1.63486 1.258761,0.44318 2.180069,1.27955 2.74188,2.47457 0.384802,1.40157 -0.219424,2.54148 -1.168755,3.53152 -1.044249,0.97684 -2.229162,1.78319 -3.380779,2.62507 -1.165667,0.93252 -2.382327,1.80104 -3.537855,2.74566 -1.469155,1.20073 -2.963487,2.36939 -4.449797,3.54862 -1.178459,0.80565 -2.122122,1.88886 -3.220061,2.78823 -0.899607,0.62714 -1.666706,1.42391 -2.154931,2.4072 0,0 -6.714468,3.10383 -6.714468,3.10383 v 0 c 0.369818,-1.14279 1.065368,-2.04782 1.996344,-2.80353 1.249977,-0.73906 2.08719,-1.97069 3.290062,-2.78423 1.523802,-1.11546 2.961857,-2.34085 4.450837,-3.50396 1.114449,-0.99925 2.35481,-1.83179 3.513524,-2.77199 1.088114,-0.90349 2.3384,-1.60811 3.3738,-2.57754 0.881906,-0.63608 1.69011,-1.50066 1.561507,-2.66639 -0.461719,-1.01052 -1.311979,-1.63063 -2.371045,-1.95699 -1.463702,-0.45228 -2.865326,-1.10133 -4.237231,-1.77546 -1.494255,-0.76377 -3.112664,-1.28514 -4.521554,-2.21165 -1.256726,-0.90059 -2.606456,-1.62968 -3.882837,-2.50129 -1.11125,-0.87549 -2.212954,-1.80633 -3.037933,-2.96573 -0.622861,-1.09912 -1.140513,-2.27416 -1.240528,-3.54766 0.01958,-1.45506 0.03034,-2.92801 0.392184,-4.3471 0.476266,-1.4719 1.367197,-2.71657 2.221606,-3.99252 1.122193,-1.51862 2.656218,-2.66269 4.106714,-3.85013 1.055545,-0.89527 2.196772,-1.83734 3.481665,-2.3688 0.147863,-0.0717 0.276535,-0.30998 0.427638,-0.24535 0.937827,0.4011 -0.559347,0.35574 -0.643691,0.30976 -1.640068,-8e-4 -3.28014,-0.003 -4.920205,5.3e-4 -1.632318,0.006 -3.26486,0.0365 -4.896996,-0.002 -1.388999,-0.0503 -2.818085,-0.0912 -4.101205,-0.68721 -1.126935,-0.67602 -2.029264,-1.58862 -2.110441,-2.97092 0.007,-1.454 0.0045,-2.91363 0.184668,-4.35888 0.204341,-1.24842 0.638551,-2.35133 1.188292,-3.47949 0.572375,-1.10017 1.510826,-1.91698 2.136523,-2.98565 0.780323,-0.93745 1.661277,-1.74708 2.51669,-2.61293 1.522879,-1.28412 2.919799,-2.72058 4.420648,-4.03254 1.538203,-1.40177 3.216654,-2.64696 4.876028,-3.90235 1.435197,-1.23663 2.950911,-2.35727 4.462973,-3.49151 0,0 6.915374,-2.66792 6.915374,-2.66792 z"
       inkscape:connector-curvature="0" />
  </g>
</svg>
